<svg width="264" height="128" viewBox="0 0 264 128" fill="none" xmlns="http://www.w3.org/2000/svg">
<path d="M1 64C1 29.2061 29.2061 1 64 1H120.889C124.264 1 127 3.73604 127 7.11111V64C127 98.7939 98.7939 127 64 127H7.11111C3.73604 127 1 124.264 1 120.889V64Z" stroke="#FF480E" stroke-width="2"/>
<path d="M1 64C1 29.2061 29.2061 1 64 1H120.889C124.264 1 127 3.73604 127 7.11111V64C127 98.7939 98.7939 127 64 127H7.11111C3.73604 127 1 124.264 1 120.889V64Z" stroke="#FF2E4D" stroke-width="2"/>
<path d="M137 30C137 46.0163 149.984 59 166 59H192.667C193.955 59 195 57.9553 195 56.6667V30C195 13.9837 182.016 1 166 1H139.333C138.045 1 137 2.04467 137 3.33334V30Z" stroke="#FF2E4D" stroke-width="2"/>
<path d="M263 30C263 46.0163 250.016 59 234 59H207.333C206.045 59 205 57.9553 205 56.6667V30C205 13.9837 217.984 1 234 1H260.667C261.955 1 263 2.04467 263 3.33334V30Z" stroke="#FF480E" stroke-width="2"/>
<path d="M263 30C263 46.0163 250.016 59 234 59H207.333C206.045 59 205 57.9553 205 56.6667V30C205 13.9837 217.984 1 234 1H260.667C261.955 1 263 2.04467 263 3.33334V30Z" stroke="#FF2E4D" stroke-width="2"/>
<path d="M204 98C204 114.569 217.431 128 234 128H260.667C262.508 128 264 126.508 264 124.667V98C264 81.4315 250.569 68 234 68H207.333C205.492 68 204 69.4924 204 71.3333V98Z" fill="#FF2E4D" fill-opacity="0.6"/>
<path d="M224 88.6875H228.688V84.6875H231.312V88.6875H233.312V84.6875H236V88.6875C237.708 88.6875 239.104 89.1042 240.188 89.9375C241.104 90.6458 241.667 91.5625 241.875 92.6875C242.125 93.7708 242 94.75 241.5 95.625C241.042 96.4583 240.312 96.9167 239.312 97C240.604 96.9167 241.646 97.3958 242.438 98.4375C243.229 99.4792 243.562 100.688 243.438 102.062C243.271 103.521 242.625 104.729 241.5 105.688C240.167 106.771 238.333 107.312 236 107.312V111.312H233.312V107.312H231.312V111.312H228.688V107.312H224L224.688 104.688H226C226.375 104.688 226.688 104.562 226.938 104.312C227.188 104.021 227.312 103.688 227.312 103.312V92.6875C227.312 92.3125 227.188 92 226.938 91.75C226.688 91.4583 226.375 91.3125 226 91.3125H224V88.6875ZM231.312 91.3125V96.6875H232.25C233 96.6458 233.688 96.5625 234.312 96.4375C235.188 96.2708 235.875 96.0208 236.375 95.6875C237 95.2708 237.312 94.7083 237.312 94C237.312 92.75 236.312 91.9375 234.312 91.5625C233.312 91.3542 232.312 91.2708 231.312 91.3125ZM231.312 98.6875V104.688L232.5 104.625C233.417 104.542 234.25 104.438 235 104.312C236.083 104.062 236.917 103.75 237.5 103.375C238.292 102.917 238.688 102.354 238.688 101.688C238.688 100.979 238.292 100.396 237.5 99.9375C236.917 99.5625 236.083 99.2708 235 99.0625C234.25 98.8958 233.417 98.7708 232.5 98.6875H231.312Z" fill="white"/>
<path d="M195 98C195 114.016 182.016 127 166 127H139.333C138.045 127 137 125.955 137 124.667V98C137 81.9837 149.984 69 166 69H192.667C193.955 69 195 70.0447 195 71.3333V98Z" stroke="#FF2E4D" stroke-width="2"/>
<path d="M32 56V60.75H36.75V79.75H41.5V56H32Z" fill="#FF2E4D"/>
<path d="M49.5378 55.3262C48.2781 55.3262 47.0699 55.8266 46.1791 56.7174C45.2883 57.6082 44.7878 58.8164 44.7878 60.0762V74.3262C44.7878 75.586 45.2883 76.7941 46.1791 77.6849C47.0699 78.5757 48.2781 79.0762 49.5378 79.0762H54.2878C55.5476 79.0762 56.7558 78.5757 57.6466 77.6849C58.5374 76.7941 59.0378 75.586 59.0378 74.3262V60.0762C59.0378 58.8164 58.5374 57.6082 57.6466 56.7174C56.7558 55.8266 55.5476 55.3262 54.2878 55.3262H49.5378ZM49.5378 60.0762H54.2878V74.3262H49.5378V60.0762Z" fill="#FF2E4D"/>
<path d="M67.5378 55.3262C66.2781 55.3262 65.0699 55.8266 64.1791 56.7174C63.2883 57.6082 62.7878 58.8164 62.7878 60.0762V74.3262C62.7878 75.586 63.2883 76.7941 64.1791 77.6849C65.0699 78.5757 66.2781 79.0762 67.5378 79.0762H72.2878C73.5476 79.0762 74.7558 78.5757 75.6466 77.6849C76.5374 76.7941 77.0378 75.586 77.0378 74.3262V60.0762C77.0378 58.8164 76.5374 57.6082 75.6466 56.7174C74.7558 55.8266 73.5476 55.3262 72.2878 55.3262H67.5378ZM67.5378 60.0762H72.2878V74.3262H67.5378V60.0762Z" fill="#FF2E4D"/>
<path d="M85.5378 55.3262C84.2781 55.3262 83.0699 55.8266 82.1791 56.7174C81.2883 57.6082 80.7878 58.8164 80.7878 60.0762V74.3262C80.7878 75.586 81.2883 76.7941 82.1791 77.6849C83.0699 78.5757 84.2781 79.0762 85.5378 79.0762H90.2878C91.5476 79.0762 92.7558 78.5757 93.6466 77.6849C94.5374 76.7941 95.0378 75.586 95.0378 74.3262V60.0762C95.0378 58.8164 94.5374 57.6082 93.6466 56.7174C92.7558 55.8266 91.5476 55.3262 90.2878 55.3262H85.5378ZM85.5378 60.0762H90.2878V74.3262H85.5378V60.0762Z" fill="#FF2E4D"/>
</svg>
