<svg width="264" height="128" viewBox="0 0 264 128" fill="none" xmlns="http://www.w3.org/2000/svg">
<path d="M1 64C1 29.2061 29.2061 1 64 1H120.889C124.264 1 127 3.73604 127 7.11111V64C127 98.7939 98.7939 127 64 127H7.11111C3.73604 127 1 124.264 1 120.889V64Z" stroke="#FF480E" stroke-width="2"/>
<path d="M1 64C1 29.2061 29.2061 1 64 1H120.889C124.264 1 127 3.73604 127 7.11111V64C127 98.7939 98.7939 127 64 127H7.11111C3.73604 127 1 124.264 1 120.889V64Z" stroke="#FF2E4D" stroke-width="2"/>
<path d="M136 30C136 46.5685 149.431 60 166 60H192.667C194.508 60 196 58.5076 196 56.6667V30C196 13.4315 182.569 0 166 0H139.333C137.492 0 136 1.49239 136 3.33334V30Z" fill="#FF2E4D" fill-opacity="0.6"/>
<path d="M263 30C263 46.0163 250.016 59 234 59H207.333C206.045 59 205 57.9553 205 56.6667V30C205 13.9837 217.984 1 234 1H260.667C261.955 1 263 2.04467 263 3.33334V30Z" stroke="#FF2E4D" stroke-width="2"/>
<path d="M159.312 16.6875H172.688L168 26H172.688L163.312 43.3125V32.6875H159.312V16.6875ZM162 19.3125V30H166V33.5625L168.688 28.6875H163.625L168.375 19.3125H162Z" fill="white"/>
<path d="M204 98C204 114.569 217.431 128 234 128H260.667C262.508 128 264 126.508 264 124.667V98C264 81.4315 250.569 68 234 68H207.333C205.492 68 204 69.4924 204 71.3333V98Z" fill="#FF2E4D" fill-opacity="0.6"/>
<path d="M224 88.6875H228.688V84.6875H231.312V88.6875H233.312V84.6875H236V88.6875C237.708 88.6875 239.104 89.1042 240.188 89.9375C241.104 90.6458 241.667 91.5625 241.875 92.6875C242.125 93.7708 242 94.75 241.5 95.625C241.042 96.4583 240.312 96.9167 239.312 97C240.604 96.9167 241.646 97.3958 242.438 98.4375C243.229 99.4792 243.562 100.688 243.438 102.062C243.271 103.521 242.625 104.729 241.5 105.688C240.167 106.771 238.333 107.312 236 107.312V111.312H233.312V107.312H231.312V111.312H228.688V107.312H224L224.688 104.688H226C226.375 104.688 226.688 104.562 226.938 104.312C227.188 104.021 227.312 103.688 227.312 103.312V92.6875C227.312 92.3125 227.188 92 226.938 91.75C226.688 91.4583 226.375 91.3125 226 91.3125H224V88.6875ZM231.312 91.3125V96.6875H232.25C233 96.6458 233.688 96.5625 234.312 96.4375C235.188 96.2708 235.875 96.0208 236.375 95.6875C237 95.2708 237.312 94.7083 237.312 94C237.312 92.75 236.312 91.9375 234.312 91.5625C233.312 91.3542 232.312 91.2708 231.312 91.3125ZM231.312 98.6875V104.688L232.5 104.625C233.417 104.542 234.25 104.438 235 104.312C236.083 104.062 236.917 103.75 237.5 103.375C238.292 102.917 238.688 102.354 238.688 101.688C238.688 100.979 238.292 100.396 237.5 99.9375C236.917 99.5625 236.083 99.2708 235 99.0625C234.25 98.8958 233.417 98.7708 232.5 98.6875H231.312Z" fill="white"/>
<path d="M196 98C196 114.569 182.569 128 166 128H139.333C137.492 128 136 126.508 136 124.667V98C136 81.4315 149.431 68 166 68H192.667C194.508 68 196 69.4924 196 71.3333V98Z" fill="#FF2E4D" fill-opacity="0.6"/>
<path d="M155.312 87.3125C154.604 87.3125 153.979 87.5833 153.438 88.125C152.938 88.625 152.688 89.25 152.688 90V104.688C152.688 105.396 152.938 106.021 153.438 106.562C153.979 107.062 154.604 107.312 155.312 107.312V108.688H158V107.312H172.688V108.688H175.312V107.312C176.062 107.312 176.688 107.062 177.188 106.562C177.729 106.021 178 105.396 178 104.688V103.312H179.312V100.688H178V94H179.312V91.3125H178V90C178 89.25 177.729 88.625 177.188 88.125C176.688 87.5833 176.062 87.3125 175.312 87.3125H155.312ZM155.312 90H175.312V104.688H155.312V90ZM168 92C166.542 92 165.292 92.5208 164.25 93.5625C163.208 94.6042 162.688 95.875 162.688 97.375C162.688 98.8333 163.208 100.083 164.25 101.125C165.292 102.167 166.542 102.688 168 102.688C169.458 102.688 170.708 102.167 171.75 101.125C172.792 100.083 173.312 98.8333 173.312 97.375C173.312 95.875 172.792 94.6042 171.75 93.5625C170.708 92.5208 169.458 92 168 92ZM156.688 94V100.688H159.312V94H156.688ZM168 94.6875C168.75 94.6875 169.375 94.9583 169.875 95.5C170.417 96 170.688 96.625 170.688 97.375C170.688 98.0833 170.417 98.7083 169.875 99.25C169.375 99.75 168.75 100 168 100C167.25 100 166.604 99.75 166.062 99.25C165.562 98.7083 165.312 98.0833 165.312 97.375C165.312 96.625 165.562 96 166.062 95.5C166.604 94.9583 167.25 94.6875 168 94.6875Z" fill="white"/>
<path d="M23 56V70.25H32.5V75H23V79.75H32.5C33.7598 79.75 34.968 79.2496 35.8588 78.3588C36.7496 77.468 37.25 76.2598 37.25 75V70.25C37.25 68.9902 36.7496 67.782 35.8588 66.8912C34.968 66.0004 33.7598 65.5 32.5 65.5H27.75V60.75H37.25V56H23Z" fill="#FF2E4D"/>
<path d="M44.75 56C43.4902 56 42.282 56.5004 41.3912 57.3912C40.5004 58.282 40 59.4902 40 60.75V75C40 76.2598 40.5004 77.468 41.3912 78.3588C42.282 79.2496 43.4902 79.75 44.75 79.75H49.5C50.7598 79.75 51.968 79.2496 52.8588 78.3588C53.7496 77.468 54.25 76.2598 54.25 75V60.75C54.25 59.4902 53.7496 58.282 52.8588 57.3912C51.968 56.5004 50.7598 56 49.5 56H44.75ZM44.75 60.75H49.5V75H44.75V60.75Z" fill="#FF2E4D"/>
<path d="M61.8047 55.4404C60.5449 55.4404 59.3367 55.9409 58.4459 56.8317C57.5551 57.7225 57.0547 58.9307 57.0547 60.1904V74.4404C57.0547 75.7002 57.5551 76.9084 58.4459 77.7992C59.3367 78.69 60.5449 79.1904 61.8047 79.1904H66.5547C67.8145 79.1904 69.0226 78.69 69.9134 77.7992C70.8042 76.9084 71.3047 75.7002 71.3047 74.4404V60.1904C71.3047 58.9307 70.8042 57.7225 69.9134 56.8317C69.0226 55.9409 67.8145 55.4404 66.5547 55.4404H61.8047ZM61.8047 60.1904H66.5547V74.4404H61.8047V60.1904Z" fill="#FF2E4D"/>
<path d="M78.8047 55.4404C77.5449 55.4404 76.3367 55.9409 75.4459 56.8317C74.5551 57.7225 74.0547 58.9307 74.0547 60.1904V74.4404C74.0547 75.7002 74.5551 76.9084 75.4459 77.7992C76.3367 78.69 77.5449 79.1904 78.8047 79.1904H83.5547C84.8145 79.1904 86.0226 78.69 86.9134 77.7992C87.8042 76.9084 88.3047 75.7002 88.3047 74.4404V60.1904C88.3047 58.9307 87.8042 57.7225 86.9134 56.8317C86.0226 55.9409 84.8145 55.4404 83.5547 55.4404H78.8047ZM78.8047 60.1904H83.5547V74.4404H78.8047V60.1904Z" fill="#FF2E4D"/>
<path d="M95.8047 55.4404C94.5449 55.4404 93.3367 55.9409 92.4459 56.8317C91.5551 57.7225 91.0547 58.9307 91.0547 60.1904V74.4404C91.0547 75.7002 91.5551 76.9084 92.4459 77.7992C93.3367 78.69 94.5449 79.1904 95.8047 79.1904H100.555C101.814 79.1904 103.023 78.69 103.913 77.7992C104.804 76.9084 105.305 75.7002 105.305 74.4404V60.1904C105.305 58.9307 104.804 57.7225 103.913 56.8317C103.023 55.9409 101.814 55.4404 100.555 55.4404H95.8047ZM95.8047 60.1904H100.555V74.4404H95.8047V60.1904Z" fill="#FF2E4D"/>
</svg>
