<svg width="264" height="128" viewBox="0 0 264 128" fill="none" xmlns="http://www.w3.org/2000/svg">
<path d="M137 30C137 46.0163 149.984 59 166 59H192.667C193.955 59 195 57.9553 195 56.6667V30C195 13.9837 182.016 1 166 1H139.333C138.045 1 137 2.04467 137 3.33334V30Z" stroke="#FF2E4D" stroke-width="2"/>
<path d="M263 30C263 46.0163 250.016 59 234 59H207.333C206.045 59 205 57.9553 205 56.6667V30C205 13.9837 217.984 1 234 1H260.667C261.955 1 263 2.04467 263 3.33334V30Z" stroke="#FF480E" stroke-width="2"/>
<path d="M263 30C263 46.0163 250.016 59 234 59H207.333C206.045 59 205 57.9553 205 56.6667V30C205 13.9837 217.984 1 234 1H260.667C261.955 1 263 2.04467 263 3.33334V30Z" stroke="#FF2E4D" stroke-width="2"/>
<path d="M204 98C204 114.569 217.431 128 234 128H260.667C262.508 128 264 126.508 264 124.667V98C264 81.4315 250.569 68 234 68H207.333C205.492 68 204 69.4924 204 71.3333V98Z" fill="#FF2E4D" fill-opacity="0.6"/>
<path d="M224 88.6875H228.688V84.6875H231.312V88.6875H233.312V84.6875H236V88.6875C237.708 88.6875 239.104 89.1042 240.188 89.9375C241.104 90.6458 241.667 91.5625 241.875 92.6875C242.125 93.7708 242 94.75 241.5 95.625C241.042 96.4583 240.312 96.9167 239.312 97C240.604 96.9167 241.646 97.3958 242.438 98.4375C243.229 99.4792 243.562 100.688 243.438 102.062C243.271 103.521 242.625 104.729 241.5 105.688C240.167 106.771 238.333 107.312 236 107.312V111.312H233.312V107.312H231.312V111.312H228.688V107.312H224L224.688 104.688H226C226.375 104.688 226.688 104.562 226.938 104.312C227.188 104.021 227.312 103.688 227.312 103.312V92.6875C227.312 92.3125 227.188 92 226.938 91.75C226.688 91.4583 226.375 91.3125 226 91.3125H224V88.6875ZM231.312 91.3125V96.6875H232.25C233 96.6458 233.688 96.5625 234.312 96.4375C235.188 96.2708 235.875 96.0208 236.375 95.6875C237 95.2708 237.312 94.7083 237.312 94C237.312 92.75 236.312 91.9375 234.312 91.5625C233.312 91.3542 232.312 91.2708 231.312 91.3125ZM231.312 98.6875V104.688L232.5 104.625C233.417 104.542 234.25 104.438 235 104.312C236.083 104.062 236.917 103.75 237.5 103.375C238.292 102.917 238.688 102.354 238.688 101.688C238.688 100.979 238.292 100.396 237.5 99.9375C236.917 99.5625 236.083 99.2708 235 99.0625C234.25 98.8958 233.417 98.7708 232.5 98.6875H231.312Z" fill="white"/>
<path d="M196 98C196 114.569 182.569 128 166 128H139.333C137.492 128 136 126.508 136 124.667V98C136 81.4315 149.431 68 166 68H192.667C194.508 68 196 69.4924 196 71.3333V98Z" fill="#FF2E4D" fill-opacity="0.6"/>
<path d="M155.312 87.3125C154.604 87.3125 153.979 87.5833 153.438 88.125C152.938 88.625 152.688 89.25 152.688 90V104.688C152.688 105.396 152.938 106.021 153.438 106.562C153.979 107.062 154.604 107.312 155.312 107.312V108.688H158V107.312H172.688V108.688H175.312V107.312C176.062 107.312 176.688 107.062 177.188 106.562C177.729 106.021 178 105.396 178 104.688V103.312H179.312V100.688H178V94H179.312V91.3125H178V90C178 89.25 177.729 88.625 177.188 88.125C176.688 87.5833 176.062 87.3125 175.312 87.3125H155.312ZM155.312 90H175.312V104.688H155.312V90ZM168 92C166.542 92 165.292 92.5208 164.25 93.5625C163.208 94.6042 162.688 95.875 162.688 97.375C162.688 98.8333 163.208 100.083 164.25 101.125C165.292 102.167 166.542 102.688 168 102.688C169.458 102.688 170.708 102.167 171.75 101.125C172.792 100.083 173.312 98.8333 173.312 97.375C173.312 95.875 172.792 94.6042 171.75 93.5625C170.708 92.5208 169.458 92 168 92ZM156.688 94V100.688H159.312V94H156.688ZM168 94.6875C168.75 94.6875 169.375 94.9583 169.875 95.5C170.417 96 170.688 96.625 170.688 97.375C170.688 98.0833 170.417 98.7083 169.875 99.25C169.375 99.75 168.75 100 168 100C167.25 100 166.604 99.75 166.062 99.25C165.562 98.7083 165.312 98.0833 165.312 97.375C165.312 96.625 165.562 96 166.062 95.5C166.604 94.9583 167.25 94.6875 168 94.6875Z" fill="white"/>
<path d="M1 64C1 29.2061 29.2061 1 64 1H120.889C124.264 1 127 3.73604 127 7.11111V64C127 98.7939 98.7939 127 64 127H7.11111C3.73604 127 1 124.264 1 120.889V64Z" stroke="#FF480E" stroke-width="2"/>
<path d="M1 64C1 29.2061 29.2061 1 64 1H120.889C124.264 1 127 3.73604 127 7.11111V64C127 98.7939 98.7939 127 64 127H7.11111C3.73604 127 1 124.264 1 120.889V64Z" stroke="#FF2E4D" stroke-width="2"/>
<path d="M23.375 55.625V60.375H32.875V65.125H28.125C26.8652 65.125 25.657 65.6254 24.7662 66.5162C23.8754 67.407 23.375 68.6152 23.375 69.875V79.375H28.125H37.625V74.625H28.125V69.875H32.875C34.1348 69.875 35.343 69.3746 36.2338 68.4838C37.1246 67.593 37.625 66.3848 37.625 65.125V60.375C37.625 59.1152 37.1246 57.907 36.2338 57.0162C35.343 56.1254 34.1348 55.625 32.875 55.625H23.375Z" fill="#FF2E4D"/>
<path d="M40.375 55.625V69.875H49.875V74.625H40.375V79.375H49.875C51.1348 79.375 52.343 78.8746 53.2338 77.9838C54.1246 77.093 54.625 75.8848 54.625 74.625V69.875C54.625 68.6152 54.1246 67.407 53.2338 66.5162C52.343 65.6254 51.1348 65.125 49.875 65.125H45.125V60.375H54.625V55.625H40.375Z" fill="#FF2E4D"/>
<path d="M62.125 55.625C60.8652 55.625 59.657 56.1254 58.7662 57.0162C57.8754 57.907 57.375 59.1152 57.375 60.375V74.625C57.375 75.8848 57.8754 77.093 58.7662 77.9838C59.657 78.8746 60.8652 79.375 62.125 79.375H66.875C68.1348 79.375 69.343 78.8746 70.2338 77.9838C71.1246 77.093 71.625 75.8848 71.625 74.625V60.375C71.625 59.1152 71.1246 57.907 70.2338 57.0162C69.343 56.1254 68.1348 55.625 66.875 55.625H62.125ZM62.125 60.375H66.875V74.625H62.125V60.375Z" fill="#FF2E4D"/>
<path d="M96.125 55.625C94.8652 55.625 93.657 56.1254 92.7662 57.0162C91.8754 57.907 91.375 59.1152 91.375 60.375V74.625C91.375 75.8848 91.8754 77.093 92.7662 77.9838C93.657 78.8746 94.8652 79.375 96.125 79.375H100.875C102.135 79.375 103.343 78.8746 104.234 77.9838C105.125 77.093 105.625 75.8848 105.625 74.625V60.375C105.625 59.1152 105.125 57.907 104.234 57.0162C103.343 56.1254 102.135 55.625 100.875 55.625H96.125ZM96.125 60.375H100.875V74.625H96.125V60.375Z" fill="#FF2E4D"/>
<path d="M79.125 55.625C77.8652 55.625 76.657 56.1254 75.7662 57.0162C74.8754 57.907 74.375 59.1152 74.375 60.375V74.625C74.375 75.8848 74.8754 77.093 75.7662 77.9838C76.657 78.8746 77.8652 79.375 79.125 79.375H83.875C85.1348 79.375 86.343 78.8746 87.2338 77.9838C88.1246 77.093 88.625 75.8848 88.625 74.625V60.375C88.625 59.1152 88.1246 57.907 87.2338 57.0162C86.343 56.1254 85.1348 55.625 83.875 55.625H79.125ZM79.125 60.375H83.875V74.625H79.125V60.375Z" fill="#FF2E4D"/>
</svg>
