<svg width="40" height="40" viewBox="0 0 40 40" fill="none" xmlns="http://www.w3.org/2000/svg">
<path d="M19.9951 5.3125C17.8285 5.3125 15.8076 5.85417 13.9326 6.9375C12.0993 8.02083 10.641 9.47917 9.55762 11.3125C8.51595 13.1458 7.99512 15.1458 7.99512 17.3125V26.6875C7.99512 27.7708 8.37012 28.7083 9.12012 29.5C9.91178 30.2917 10.8701 30.6875 11.9951 30.6875H15.9951V20H10.6826V17.3125C10.6826 15.6458 11.0993 14.1042 11.9326 12.6875C12.766 11.2292 13.891 10.0833 15.3076 9.25C16.7243 8.41667 18.2868 8 19.9951 8C21.7035 8 23.266 8.41667 24.6826 9.25C26.0993 10.0833 27.2243 11.2292 28.0576 12.6875C28.891 14.1042 29.3076 15.6458 29.3076 17.3125V20H23.9951V30.6875H29.3076V32H19.9951V34.6875H27.9951C29.1201 34.6875 30.0576 34.2917 30.8076 33.5C31.5993 32.7083 31.9951 31.7708 31.9951 30.6875V17.3125C31.9951 15.1458 31.4535 13.1458 30.3701 11.3125C29.2868 9.47917 27.8285 8.02083 25.9951 6.9375C24.1618 5.85417 22.1618 5.3125 19.9951 5.3125Z" fill="#FF2E4D"/>
</svg>
