<svg width="72" height="150" viewBox="0 0 72 150" fill="none" xmlns="http://www.w3.org/2000/svg">
<path d="M71 4C71 2.34314 69.6569 1 68 1H32C14.8792 1 1 14.8792 1 32V146C1 147.657 2.34315 149 4 149H40C57.1208 149 71 135.121 71 118V4Z" stroke="#FF2E4D" stroke-width="2"/>
<path d="M48 73.6875C48 76.1042 47.4792 78.4375 46.4375 80.6875C45.3958 82.9375 43.9583 84.8542 42.125 86.4375C40.2917 88.0208 38.25 89.1042 36 89.6875C33.75 89.1042 31.7083 88.0208 29.875 86.4375C28.0417 84.8542 26.6042 82.9375 25.5625 80.6875C24.5208 78.4375 24 76.1042 24 73.6875V65.6875L36 60.3125L48 65.6875V73.6875ZM36 87C37.625 86.5417 39.1458 85.6458 40.5625 84.3125C42.0208 82.9792 43.1667 81.3958 44 79.5625C44.875 77.7292 45.3125 75.8542 45.3125 73.9375V67.375L36 63.25L26.6875 67.375V73.9375C26.6875 75.8542 27.1042 77.7292 27.9375 79.5625C28.8125 81.3958 29.9583 82.9792 31.375 84.3125C32.8333 85.6458 34.375 86.5417 36 87Z" fill="#FF2E4D"/>
</svg>
