<svg width="40" height="40" viewBox="0 0 40 40" fill="none" xmlns="http://www.w3.org/2000/svg">
<path d="M32 18.6875C32 21.1042 31.4792 23.4375 30.4375 25.6875C29.3958 27.9375 27.9583 29.8542 26.125 31.4375C24.2917 33.0208 22.25 34.1042 20 34.6875C17.75 34.1042 15.7083 33.0208 13.875 31.4375C12.0417 29.8542 10.6042 27.9375 9.5625 25.6875C8.52083 23.4375 8 21.1042 8 18.6875V10.6875L20 5.3125L32 10.6875V18.6875ZM20 32C21.625 31.5417 23.1458 30.6458 24.5625 29.3125C26.0208 27.9792 27.1667 26.3958 28 24.5625C28.875 22.7292 29.3125 20.8542 29.3125 18.9375V12.375L20 8.25L10.6875 12.375V18.9375C10.6875 20.8542 11.1042 22.7292 11.9375 24.5625C12.8125 26.3958 13.9583 27.9792 15.375 29.3125C16.8333 30.6458 18.375 31.5417 20 32Z" fill="#FF2E4D"/>
</svg>
