<svg width="40" height="40" viewBox="0 0 40 40" fill="none" xmlns="http://www.w3.org/2000/svg">
<path d="M23.9946 9.31299C25.9113 9.31299 27.6821 9.79216 29.3071 10.7505C30.9738 11.7088 32.2863 13.0213 33.2446 14.688C34.203 16.313 34.6821 18.0838 34.6821 20.0005C34.6821 21.9172 34.203 23.7088 33.2446 25.3755C32.2863 27.0005 30.9738 28.2922 29.3071 29.2505C27.6821 30.2088 25.9113 30.688 23.9946 30.688C22.078 30.688 20.2863 30.2088 18.6196 29.2505C16.9946 28.2922 15.703 27.0005 14.7446 25.3755C13.7863 23.7088 13.3071 21.9172 13.3071 20.0005C13.3071 18.5838 13.578 17.2297 14.1196 15.938C14.6613 14.6047 15.4321 13.438 16.4321 12.438C17.4321 11.438 18.578 10.6672 19.8696 10.1255C21.203 9.58382 22.578 9.31299 23.9946 9.31299ZM23.9946 12.0005C22.5363 12.0005 21.1821 12.3547 19.9321 13.063C18.7238 13.7713 17.7655 14.7505 17.0571 16.0005C16.3488 17.2088 15.9946 18.5421 15.9946 20.0005C15.9946 21.4588 16.3488 22.813 17.0571 24.063C17.7655 25.2713 18.7238 26.2297 19.9321 26.938C21.1821 27.6463 22.5363 28.0005 23.9946 28.0005C25.453 28.0005 26.7863 27.6463 27.9946 26.938C29.2446 26.2297 30.2238 25.2713 30.9321 24.063C31.6405 22.813 31.9946 21.4588 31.9946 20.0005C31.9946 18.5421 31.6405 17.2088 30.9321 16.0005C30.2238 14.7505 29.2446 13.7713 27.9946 13.063C26.7863 12.3547 25.453 12.0005 23.9946 12.0005ZM22.6821 14.688H24.6821V19.688L27.7446 22.813L26.3696 24.2505L22.6821 20.563V14.688ZM6.68213 28.0005C6.30713 28.0005 5.9738 27.8755 5.68213 27.6255C5.43213 27.3755 5.30713 27.063 5.30713 26.688C5.30713 26.313 5.43213 26.0005 5.68213 25.7505C5.9738 25.4588 6.30713 25.313 6.68213 25.313H11.7446C12.1613 26.2297 12.6821 27.1255 13.3071 28.0005H6.68213ZM7.99463 21.313C7.61963 21.313 7.30713 21.188 7.05713 20.938C6.80713 20.688 6.68213 20.3755 6.68213 20.0005C6.68213 19.6255 6.80713 19.313 7.05713 19.063C7.30713 18.813 7.61963 18.688 7.99463 18.688H10.7446L10.6821 20.0005L10.7446 21.313H7.99463ZM9.30713 14.688C8.93213 14.688 8.61963 14.563 8.36963 14.313C8.11963 14.0213 7.99463 13.688 7.99463 13.313C7.99463 12.938 8.11963 12.6255 8.36963 12.3755C8.61963 12.1255 8.93213 12.0005 9.30713 12.0005H13.3071C12.6821 12.8755 12.1613 13.7713 11.7446 14.688H9.30713Z" fill="#FF2E4D"/>
</svg>
