<svg width="54" height="49" viewBox="0 0 54 49" fill="none" xmlns="http://www.w3.org/2000/svg">
<path d="M27.25 41.5L27 41.75L26.75 41.5C21.4167 36.6667 17.7083 33.2083 15.625 31.125C12.2917 27.7917 9.83333 24.9167 8.25 22.5C6.5 19.75 5.625 17.125 5.625 14.625C5.625 11.9583 6.5 9.75 8.25 8C10.0833 6.25 12.3333 5.375 15 5.375C17.0833 5.375 19 5.95833 20.75 7.125C22.5833 8.29167 23.8333 9.79167 24.5 11.625H29.5C30.1667 9.79167 31.375 8.29167 33.125 7.125C34.9583 5.95833 36.9167 5.375 39 5.375C41.6667 5.375 43.875 6.25 45.625 8C47.4583 9.75 48.375 11.9583 48.375 14.625C48.375 17.125 47.5 19.75 45.75 22.5C44.1667 24.9167 41.7083 27.7917 38.375 31.125C36.2917 33.2083 32.5833 36.6667 27.25 41.5ZM39 0C36.6667 0 34.4583 0.5 32.375 1.5C30.2917 2.5 28.5 3.83333 27 5.5C25.5 3.83333 23.7083 2.5 21.625 1.5C19.5417 0.5 17.3333 0 15 0C12.3333 0 9.875 0.666667 7.625 2C5.375 3.25 3.58333 5 2.25 7.25C1 9.5 0.375 11.9583 0.375 14.625C0.375 17.875 1.33333 21.125 3.25 24.375C4.91667 27.2083 7.54167 30.4583 11.125 34.125C13.375 36.4583 17.375 40.2083 23.125 45.375L27 48.875L30.875 45.375C36.625 40.2083 40.625 36.4583 42.875 34.125C46.4583 30.4583 49.0833 27.2083 50.75 24.375C52.6667 21.125 53.625 17.875 53.625 14.625C53.625 11.9583 52.9583 9.5 51.625 7.25C50.375 5 48.625 3.25 46.375 2C44.125 0.666667 41.6667 0 39 0Z" fill="#FF480E"/>
<path d="M27.25 41.5L27 41.75L26.75 41.5C21.4167 36.6667 17.7083 33.2083 15.625 31.125C12.2917 27.7917 9.83333 24.9167 8.25 22.5C6.5 19.75 5.625 17.125 5.625 14.625C5.625 11.9583 6.5 9.75 8.25 8C10.0833 6.25 12.3333 5.375 15 5.375C17.0833 5.375 19 5.95833 20.75 7.125C22.5833 8.29167 23.8333 9.79167 24.5 11.625H29.5C30.1667 9.79167 31.375 8.29167 33.125 7.125C34.9583 5.95833 36.9167 5.375 39 5.375C41.6667 5.375 43.875 6.25 45.625 8C47.4583 9.75 48.375 11.9583 48.375 14.625C48.375 17.125 47.5 19.75 45.75 22.5C44.1667 24.9167 41.7083 27.7917 38.375 31.125C36.2917 33.2083 32.5833 36.6667 27.25 41.5ZM39 0C36.6667 0 34.4583 0.5 32.375 1.5C30.2917 2.5 28.5 3.83333 27 5.5C25.5 3.83333 23.7083 2.5 21.625 1.5C19.5417 0.5 17.3333 0 15 0C12.3333 0 9.875 0.666667 7.625 2C5.375 3.25 3.58333 5 2.25 7.25C1 9.5 0.375 11.9583 0.375 14.625C0.375 17.875 1.33333 21.125 3.25 24.375C4.91667 27.2083 7.54167 30.4583 11.125 34.125C13.375 36.4583 17.375 40.2083 23.125 45.375L27 48.875L30.875 45.375C36.625 40.2083 40.625 36.4583 42.875 34.125C46.4583 30.4583 49.0833 27.2083 50.75 24.375C52.6667 21.125 53.625 17.875 53.625 14.625C53.625 11.9583 52.9583 9.5 51.625 7.25C50.375 5 48.625 3.25 46.375 2C44.125 0.666667 41.6667 0 39 0Z" fill="#FF2E4D"/>
</svg>
