<svg width="360" height="360" viewBox="0 0 360 360" fill="none" xmlns="http://www.w3.org/2000/svg">
<g opacity="0.24">
<path d="M359 184.932C359 83.3489 276.651 1 175.068 1H19.726C9.38394 1 1.00003 9.38393 1.00003 19.726V175.068C1.00003 276.651 83.3489 359 184.932 359H340.274C350.616 359 359 350.616 359 340.274V184.932Z" stroke="#FF480E" stroke-width="2"/>
<path d="M359 184.932C359 83.3489 276.651 1 175.068 1H19.726C9.38394 1 1.00003 9.38393 1.00003 19.726V175.068C1.00003 276.651 83.3489 359 184.932 359H340.274C350.616 359 359 350.616 359 340.274V184.932Z" stroke="#FF2E4D" stroke-width="2"/>
</g>
</svg>
