<svg width="164" height="88" viewBox="0 0 164 88" fill="none" xmlns="http://www.w3.org/2000/svg">
<path d="M110 87C106.134 87 103 83.866 103 80V55C103 37.8792 116.879 24 134 24H156C159.866 24 163 27.134 163 31V56C163 73.1208 149.121 87 132 87H110Z" stroke="#1E2978" stroke-opacity="0.15" stroke-width="2"/>
<path d="M76 87C79.866 87 83 83.866 83 80V44C83 20.2518 63.7482 1 40 1H8C4.134 1 1 4.13401 1 8V44C1 67.7482 20.2518 87 44 87H76Z" stroke="#1E2978" stroke-opacity="0.15" stroke-width="2"/>
</svg>
