<svg width="48" height="26" viewBox="0 0 48 26" fill="none" xmlns="http://www.w3.org/2000/svg">
<path d="M13.9688 0H18C19.125 0 20.0625 0.40625 20.8125 1.21875C21.625 1.96875 22.0312 2.90625 22.0312 4.03125V12H10.0312V4.03125C10.0312 2.90625 10.4062 1.96875 11.1562 1.21875C11.9688 0.40625 12.9062 0 13.9688 0ZM30 0H34.0312C35.0938 0 36 0.40625 36.75 1.21875C37.5625 1.96875 37.9688 2.90625 37.9688 4.03125V12H25.9688V4.03125C25.9688 2.90625 26.3438 1.96875 27.0938 1.21875C27.9062 0.40625 28.875 0 30 0ZM1.96875 6H4.03125C4.59375 6 5.0625 6.1875 5.4375 6.5625C5.8125 6.9375 6 7.40625 6 7.96875V12C6 13.125 6.375 14.0938 7.125 14.9062C7.9375 15.6562 8.90625 16.0312 10.0312 16.0312H37.9688C39.0938 16.0312 40.0312 15.6562 40.7812 14.9062C41.5938 14.0938 42 13.125 42 12V7.96875C42 7.40625 42.1875 6.9375 42.5625 6.5625C42.9375 6.1875 43.4062 6 43.9688 6H46.0312C46.5938 6 47.0625 6.1875 47.4375 6.5625C47.8125 6.9375 48 7.40625 48 7.96875V25.9688H42V22.0312H6V25.9688H0V7.96875C0 7.40625 0.1875 6.9375 0.5625 6.5625C0.9375 6.1875 1.40625 6 1.96875 6Z" fill="#FF480E"/>
<path d="M13.9688 0H18C19.125 0 20.0625 0.40625 20.8125 1.21875C21.625 1.96875 22.0312 2.90625 22.0312 4.03125V12H10.0312V4.03125C10.0312 2.90625 10.4062 1.96875 11.1562 1.21875C11.9688 0.40625 12.9062 0 13.9688 0ZM30 0H34.0312C35.0938 0 36 0.40625 36.75 1.21875C37.5625 1.96875 37.9688 2.90625 37.9688 4.03125V12H25.9688V4.03125C25.9688 2.90625 26.3438 1.96875 27.0938 1.21875C27.9062 0.40625 28.875 0 30 0ZM1.96875 6H4.03125C4.59375 6 5.0625 6.1875 5.4375 6.5625C5.8125 6.9375 6 7.40625 6 7.96875V12C6 13.125 6.375 14.0938 7.125 14.9062C7.9375 15.6562 8.90625 16.0312 10.0312 16.0312H37.9688C39.0938 16.0312 40.0312 15.6562 40.7812 14.9062C41.5938 14.0938 42 13.125 42 12V7.96875C42 7.40625 42.1875 6.9375 42.5625 6.5625C42.9375 6.1875 43.4062 6 43.9688 6H46.0312C46.5938 6 47.0625 6.1875 47.4375 6.5625C47.8125 6.9375 48 7.40625 48 7.96875V25.9688H42V22.0312H6V25.9688H0V7.96875C0 7.40625 0.1875 6.9375 0.5625 6.5625C0.9375 6.1875 1.40625 6 1.96875 6Z" fill="#FF2E4D"/>
</svg>
