<svg width="68" height="68" viewBox="0 0 68 68" fill="none" xmlns="http://www.w3.org/2000/svg">
<path d="M53.6875 51.9688C53.2708 50.6146 52.4375 49.5208 51.1875 48.6875C50.0417 47.75 48.7396 47.2812 47.2812 47.2812H44V37.2812C44 36.3438 43.6875 35.5625 43.0625 34.9375C42.4375 34.3125 41.6562 34 40.7188 34H20.7188V27.2812H27.2812C28.2188 27.2812 29 26.9688 29.625 26.3438C30.3542 25.7188 30.7188 24.9375 30.7188 24V17.2812H37.2812C39.1562 17.2812 40.7188 16.6562 41.9688 15.4062C43.3229 14.0521 44 12.4896 44 10.7188V9.3125C49 11.2917 53.0104 14.5208 56.0312 19C59.1562 23.4792 60.7188 28.4792 60.7188 34C60.7188 37.4375 60.0938 40.7188 58.8438 43.8438C57.5938 46.8646 55.875 49.5729 53.6875 51.9688ZM30.7188 60.4062C26.3438 59.8854 22.3854 58.375 18.8438 55.875C15.3021 53.375 12.4896 50.25 10.4062 46.5C8.32292 42.6458 7.28125 38.4792 7.28125 34C7.28125 32.0208 7.54167 30.0417 8.0625 28.0625L24 44V47.2812C24 49.1562 24.625 50.7708 25.875 52.125C27.2292 53.375 28.8438 54 30.7188 54V60.4062ZM34 0.71875C29.625 0.71875 25.3542 1.55208 21.1875 3.21875C17.125 4.88542 13.5312 7.28125 10.4062 10.4062C7.28125 13.5312 4.88542 17.1771 3.21875 21.3438C1.55208 25.4062 0.71875 29.625 0.71875 34C0.71875 38.375 1.55208 42.6458 3.21875 46.8125C4.88542 50.875 7.28125 54.4688 10.4062 57.5938C13.5312 60.7188 17.125 63.1146 21.1875 64.7812C25.3542 66.4479 29.625 67.2812 34 67.2812C38.375 67.2812 42.5938 66.4479 46.6562 64.7812C50.8229 63.1146 54.4688 60.7188 57.5938 57.5938C60.7188 54.4688 63.1146 50.875 64.7812 46.8125C66.4479 42.6458 67.2812 38.375 67.2812 34C67.2812 29.625 66.4479 25.4062 64.7812 21.3438C63.1146 17.1771 60.7188 13.5312 57.5938 10.4062C54.4688 7.28125 50.8229 4.88542 46.6562 3.21875C42.5938 1.55208 38.375 0.71875 34 0.71875Z" fill="#FF480E"/>
<path d="M53.6875 51.9688C53.2708 50.6146 52.4375 49.5208 51.1875 48.6875C50.0417 47.75 48.7396 47.2812 47.2812 47.2812H44V37.2812C44 36.3438 43.6875 35.5625 43.0625 34.9375C42.4375 34.3125 41.6562 34 40.7188 34H20.7188V27.2812H27.2812C28.2188 27.2812 29 26.9688 29.625 26.3438C30.3542 25.7188 30.7188 24.9375 30.7188 24V17.2812H37.2812C39.1562 17.2812 40.7188 16.6562 41.9688 15.4062C43.3229 14.0521 44 12.4896 44 10.7188V9.3125C49 11.2917 53.0104 14.5208 56.0312 19C59.1562 23.4792 60.7188 28.4792 60.7188 34C60.7188 37.4375 60.0938 40.7188 58.8438 43.8438C57.5938 46.8646 55.875 49.5729 53.6875 51.9688ZM30.7188 60.4062C26.3438 59.8854 22.3854 58.375 18.8438 55.875C15.3021 53.375 12.4896 50.25 10.4062 46.5C8.32292 42.6458 7.28125 38.4792 7.28125 34C7.28125 32.0208 7.54167 30.0417 8.0625 28.0625L24 44V47.2812C24 49.1562 24.625 50.7708 25.875 52.125C27.2292 53.375 28.8438 54 30.7188 54V60.4062ZM34 0.71875C29.625 0.71875 25.3542 1.55208 21.1875 3.21875C17.125 4.88542 13.5312 7.28125 10.4062 10.4062C7.28125 13.5312 4.88542 17.1771 3.21875 21.3438C1.55208 25.4062 0.71875 29.625 0.71875 34C0.71875 38.375 1.55208 42.6458 3.21875 46.8125C4.88542 50.875 7.28125 54.4688 10.4062 57.5938C13.5312 60.7188 17.125 63.1146 21.1875 64.7812C25.3542 66.4479 29.625 67.2812 34 67.2812C38.375 67.2812 42.5938 66.4479 46.6562 64.7812C50.8229 63.1146 54.4688 60.7188 57.5938 57.5938C60.7188 54.4688 63.1146 50.875 64.7812 46.8125C66.4479 42.6458 67.2812 38.375 67.2812 34C67.2812 29.625 66.4479 25.4062 64.7812 21.3438C63.1146 17.1771 60.7188 13.5312 57.5938 10.4062C54.4688 7.28125 50.8229 4.88542 46.6562 3.21875C42.5938 1.55208 38.375 0.71875 34 0.71875Z" fill="#FF2E4D"/>
</svg>
