<svg width="64" height="64" viewBox="0 0 64 64" fill="none" xmlns="http://www.w3.org/2000/svg">
<path d="M10 45L0 54.8438V26.7188H10V45ZM26.7188 38.9062L21.4062 34.375L16.7188 38.75V13.2812H26.7188V38.9062ZM43.2812 33.2812L33.2812 43.2812V0H43.2812V33.2812ZM52.6562 32.6562L46.7188 26.7188H63.2812V43.2812L57.3438 37.3438L33.2812 61.25L21.7188 51.0938L9.21875 63.2812H0L21.5625 42.1875L33.2812 52.1875L52.6562 32.6562Z" fill="#FF480E"/>
<path d="M10 45L0 54.8438V26.7188H10V45ZM26.7188 38.9062L21.4062 34.375L16.7188 38.75V13.2812H26.7188V38.9062ZM43.2812 33.2812L33.2812 43.2812V0H43.2812V33.2812ZM52.6562 32.6562L46.7188 26.7188H63.2812V43.2812L57.3438 37.3438L33.2812 61.25L21.7188 51.0938L9.21875 63.2812H0L21.5625 42.1875L33.2812 52.1875L52.6562 32.6562Z" fill="#FF2E4D"/>
</svg>
