<svg width="78" height="40" viewBox="0 0 78 40" fill="none" xmlns="http://www.w3.org/2000/svg">
<g clip-path="url(#clip0_21_133)">
<path d="M0 16C0 7.16344 7.1634 0 16 0H74C76.209 0 78 1.79086 78 4V24C78 32.8366 70.837 40 62 40H4C1.7909 40 0 38.2091 0 36V16Z" fill="#FF2E4D"/>
<path d="M12.8615 23.4492V31.6791H8V8.32086H17.2044C18.9761 8.32086 20.5318 8.64171 21.8714 9.28342C23.2218 9.92513 24.2589 10.8396 24.9827 12.0267C25.7066 13.2032 26.0685 14.5455 26.0685 16.0535C26.0685 18.3422 25.2744 20.1497 23.6864 21.4759C22.1091 22.7914 19.9214 23.4492 17.1234 23.4492H12.8615ZM12.8615 19.5508H17.2044C18.49 19.5508 19.4677 19.2513 20.1375 18.6524C20.8181 18.0535 21.1584 17.1979 21.1584 16.0856C21.1584 14.9412 20.8181 14.016 20.1375 13.3102C19.4569 12.6043 18.517 12.2406 17.3178 12.2193H12.8615V19.5508Z" fill="#FBFBFB"/>
<path d="M38.157 23.1283H34.284V31.6791H29.4229V8.32086H38.19C40.977 8.32086 43.127 8.93583 44.639 10.1658C46.152 11.3957 46.908 13.1337 46.908 15.3797C46.908 16.9733 46.557 18.3048 45.855 19.3743C45.163 20.4332 44.11 21.2781 42.695 21.9091L47.799 31.4545V31.6791H42.581L38.157 23.1283ZM34.284 19.2299H38.206C39.427 19.2299 40.372 18.9251 41.042 18.3155C41.712 17.6952 42.047 16.8449 42.047 15.7647C42.047 14.6631 41.728 13.7968 41.09 13.1658C40.464 12.5348 39.497 12.2193 38.19 12.2193H34.284V19.2299Z" fill="#FBFBFB"/>
<path d="M70 20.5294C70 22.8289 69.589 24.8449 68.768 26.5775C67.947 28.3102 66.77 29.6471 65.236 30.5882C63.712 31.5294 61.962 32 59.985 32C58.03 32 56.285 31.5348 54.751 30.6043C53.217 29.6738 52.029 28.3476 51.186 26.6257C50.343 24.893 49.917 22.9037 49.906 20.6578V19.5027C49.906 17.2032 50.322 15.1818 51.154 13.4385C51.996 11.6845 53.179 10.3422 54.703 9.41176C56.237 8.47059 57.987 8 59.953 8C61.919 8 63.664 8.47059 65.187 9.41176C66.721 10.3422 67.904 11.6845 68.736 13.4385C69.579 15.1818 70 17.1979 70 19.4866V20.5294ZM65.074 19.4706C65.074 17.0214 64.631 15.1604 63.745 13.8877C62.859 12.615 61.595 11.9786 59.953 11.9786C58.322 11.9786 57.063 12.6096 56.177 13.8717C55.291 15.123 54.843 16.9626 54.832 19.3904V20.5294C54.832 22.9144 55.275 24.7647 56.161 26.0802C57.047 27.3957 58.322 28.0535 59.985 28.0535C61.617 28.0535 62.87 27.4225 63.745 26.1604C64.62 24.8877 65.063 23.0374 65.074 20.6096V19.4706Z" fill="#FBFBFB"/>
</g>
<defs>
<clipPath id="clip0_21_133">
<rect width="78" height="40" fill="white"/>
</clipPath>
</defs>
</svg>
