<svg width="116" height="116" viewBox="0 0 116 116" fill="none" xmlns="http://www.w3.org/2000/svg">
<g opacity="0.24">
<path d="M115 59.589C115 27.2312 88.7688 1 56.411 1H6.35616C3.39803 1 1 3.39804 1 6.35616V56.411C1 88.7688 27.2312 115 59.589 115H109.644C112.602 115 115 112.602 115 109.644V59.589Z" stroke="#FF480E" stroke-width="2"/>
<path d="M115 59.589C115 27.2312 88.7688 1 56.411 1H6.35616C3.39803 1 1 3.39804 1 6.35616V56.411C1 88.7688 27.2312 115 59.589 115H109.644C112.602 115 115 112.602 115 109.644V59.589Z" stroke="#FF2E4D" stroke-width="2"/>
</g>
</svg>
