<svg width="16" height="10" viewBox="0 0 16 10" fill="none" xmlns="http://www.w3.org/2000/svg">
<path d="M8 3C8.5625 3 9.03125 3.19792 9.40625 3.59375C9.80208 3.96875 10 4.4375 10 5C10 5.5625 9.80208 6.04167 9.40625 6.4375C9.03125 6.8125 8.5625 7 8 7C7.4375 7 6.95833 6.8125 6.5625 6.4375C6.1875 6.04167 6 5.5625 6 5C6 4.4375 6.1875 3.96875 6.5625 3.59375C6.95833 3.19792 7.4375 3 8 3ZM8 0C9.64583 0 11.1354 0.46875 12.4688 1.40625C13.8021 2.32292 14.7604 3.52083 15.3438 5C14.7604 6.47917 13.8021 7.6875 12.4688 8.625C11.1354 9.54167 9.64583 10 8 10C6.35417 10 4.86458 9.54167 3.53125 8.625C2.19792 7.6875 1.23958 6.47917 0.65625 5C1.23958 3.52083 2.19792 2.32292 3.53125 1.40625C4.86458 0.46875 6.35417 0 8 0ZM2.125 5C2.66667 6.125 3.46875 7.02083 4.53125 7.6875C5.59375 8.33333 6.75 8.65625 8 8.65625C9.25 8.65625 10.4062 8.33333 11.4688 7.6875C12.5312 7.02083 13.3333 6.125 13.875 5C13.3333 3.875 12.5312 2.98958 11.4688 2.34375C10.4062 1.67708 9.25 1.34375 8 1.34375C6.75 1.34375 5.59375 1.67708 4.53125 2.34375C3.46875 2.98958 2.66667 3.875 2.125 5Z" fill="white"/>
</svg>
