<svg width="31" height="26" viewBox="0 0 31 26" fill="none" xmlns="http://www.w3.org/2000/svg">
<path d="M27 19H31V21.6875H27V25.6875H24.3125V21.6875H20.3125V19H24.3125V15H27V19ZM24.3125 5.6875V3H3V5.6875H24.3125ZM24.3125 11H3V19H17.6875V21.6875H3C2.25 21.6875 1.60417 21.4375 1.0625 20.9375C0.5625 20.3958 0.3125 19.75 0.3125 19V3C0.3125 2.25 0.5625 1.625 1.0625 1.125C1.60417 0.583333 2.25 0.3125 3 0.3125H24.3125C25.0625 0.3125 25.6875 0.583333 26.1875 1.125C26.7292 1.625 27 2.25 27 3V12.3125H24.3125V11Z" fill="#FF2E4D"/>
<path d="M27 19H31V21.6875H27V25.6875H24.3125V21.6875H20.3125V19H24.3125V15H27V19ZM24.3125 5.6875V3H3V5.6875H24.3125ZM24.3125 11H3V19H17.6875V21.6875H3C2.25 21.6875 1.60417 21.4375 1.0625 20.9375C0.5625 20.3958 0.3125 19.75 0.3125 19V3C0.3125 2.25 0.5625 1.625 1.0625 1.125C1.60417 0.583333 2.25 0.3125 3 0.3125H24.3125C25.0625 0.3125 25.6875 0.583333 26.1875 1.125C26.7292 1.625 27 2.25 27 3V12.3125H24.3125V11Z" fill="#FF2E4D"/>
</svg>
