<svg width="168" height="168" viewBox="0 0 168 168" fill="none" xmlns="http://www.w3.org/2000/svg">
<path d="M52.125 40.6875L54 42.5625L45.3125 51.3125L40.6875 46.6875L42.5625 44.8125L45.3125 47.5625L52.125 40.6875ZM38.6875 29.3125C40.1458 29.3125 41.3958 29.8333 42.4375 30.875C43.4792 31.9167 44 33.1875 44 34.6875C44 36.1458 43.4792 37.3958 42.4375 38.4375C41.3958 39.4792 40.125 40 38.625 40C37.1667 40 35.9167 39.4792 34.875 38.4375C33.8333 37.3958 33.3125 36.1458 33.3125 34.6875C33.3125 33.1875 33.8333 31.9167 34.875 30.875C35.9167 29.8333 37.1875 29.3125 38.6875 29.3125ZM38.6875 32C37.9375 32 37.2917 32.2708 36.75 32.8125C36.25 33.3125 36 33.9375 36 34.6875C36 35.3958 36.25 36.0208 36.75 36.5625C37.2917 37.0625 37.9167 37.3125 38.625 37.3125C39.375 37.3125 40 37.0625 40.5 36.5625C41.0417 36.0208 41.3125 35.3958 41.3125 34.6875C41.3125 33.9375 41.0417 33.3125 40.5 32.8125C40 32.2708 39.3958 32 38.6875 32ZM38.6875 41.3125C39.5625 41.3125 40.625 41.4375 41.875 41.6875L39.625 43.9375L38.6875 43.875C37.4375 43.875 36.1458 44.0417 34.8125 44.375C33.6458 44.7083 32.6458 45.1042 31.8125 45.5625C30.9792 46.0208 30.5625 46.3958 30.5625 46.6875V48.125H38.8125L41.3125 50.6875H28V46.6875C28 45.5625 28.6667 44.5625 30 43.6875C31.0833 42.9792 32.5208 42.3958 34.3125 41.9375C35.8958 41.5208 37.3542 41.3125 38.6875 41.3125Z" fill="#FF480E"/>
<path d="M52.125 40.6875L54 42.5625L45.3125 51.3125L40.6875 46.6875L42.5625 44.8125L45.3125 47.5625L52.125 40.6875ZM38.6875 29.3125C40.1458 29.3125 41.3958 29.8333 42.4375 30.875C43.4792 31.9167 44 33.1875 44 34.6875C44 36.1458 43.4792 37.3958 42.4375 38.4375C41.3958 39.4792 40.125 40 38.625 40C37.1667 40 35.9167 39.4792 34.875 38.4375C33.8333 37.3958 33.3125 36.1458 33.3125 34.6875C33.3125 33.1875 33.8333 31.9167 34.875 30.875C35.9167 29.8333 37.1875 29.3125 38.6875 29.3125ZM38.6875 32C37.9375 32 37.2917 32.2708 36.75 32.8125C36.25 33.3125 36 33.9375 36 34.6875C36 35.3958 36.25 36.0208 36.75 36.5625C37.2917 37.0625 37.9167 37.3125 38.625 37.3125C39.375 37.3125 40 37.0625 40.5 36.5625C41.0417 36.0208 41.3125 35.3958 41.3125 34.6875C41.3125 33.9375 41.0417 33.3125 40.5 32.8125C40 32.2708 39.3958 32 38.6875 32ZM38.6875 41.3125C39.5625 41.3125 40.625 41.4375 41.875 41.6875L39.625 43.9375L38.6875 43.875C37.4375 43.875 36.1458 44.0417 34.8125 44.375C33.6458 44.7083 32.6458 45.1042 31.8125 45.5625C30.9792 46.0208 30.5625 46.3958 30.5625 46.6875V48.125H38.8125L41.3125 50.6875H28V46.6875C28 45.5625 28.6667 44.5625 30 43.6875C31.0833 42.9792 32.5208 42.3958 34.3125 41.9375C35.8958 41.5208 37.3542 41.3125 38.6875 41.3125Z" fill="#FF2E4D"/>
<path d="M133.562 50.125L130.875 45.5C131.542 45 132.083 44.3958 132.5 43.6875C132.917 42.9792 133.188 42.1875 133.312 41.3125H138.688C138.562 43.1458 138.042 44.8333 137.125 46.375C136.208 47.9167 135.021 49.1667 133.562 50.125ZM129.312 33.375V28C131.229 28.125 132.979 28.6667 134.562 29.625C136.146 30.5833 137.417 31.8542 138.375 33.4375C139.333 35.0208 139.875 36.7708 140 38.6875H134.625C134.458 37.2708 133.875 36.0833 132.875 35.125C131.917 34.125 130.729 33.5417 129.312 33.375ZM121.312 40.6875C121.312 41.5208 121.479 42.3125 121.812 43.0625L117.188 45.75C116.396 44.1667 116 42.4792 116 40.6875C116 38.6875 116.458 36.8542 117.375 35.1875C118.333 33.4792 119.625 32.1042 121.25 31.0625C122.917 30.0208 124.729 29.4375 126.688 29.3125V34.6875C125.146 34.8542 123.854 35.5208 122.812 36.6875C121.812 37.8125 121.312 39.1458 121.312 40.6875ZM127.312 52C125.354 52 123.542 51.5417 121.875 50.625C120.25 49.7083 118.917 48.4792 117.875 46.9375L122.5 44.25C123.083 45 123.792 45.6042 124.625 46.0625C125.458 46.4792 126.354 46.6875 127.312 46.6875C128.188 46.6875 129 46.5208 129.75 46.1875L132.438 50.8125C130.854 51.6042 129.146 52 127.312 52Z" fill="#FF480E"/>
<path d="M133.562 50.125L130.875 45.5C131.542 45 132.083 44.3958 132.5 43.6875C132.917 42.9792 133.188 42.1875 133.312 41.3125H138.688C138.562 43.1458 138.042 44.8333 137.125 46.375C136.208 47.9167 135.021 49.1667 133.562 50.125ZM129.312 33.375V28C131.229 28.125 132.979 28.6667 134.562 29.625C136.146 30.5833 137.417 31.8542 138.375 33.4375C139.333 35.0208 139.875 36.7708 140 38.6875H134.625C134.458 37.2708 133.875 36.0833 132.875 35.125C131.917 34.125 130.729 33.5417 129.312 33.375ZM121.312 40.6875C121.312 41.5208 121.479 42.3125 121.812 43.0625L117.188 45.75C116.396 44.1667 116 42.4792 116 40.6875C116 38.6875 116.458 36.8542 117.375 35.1875C118.333 33.4792 119.625 32.1042 121.25 31.0625C122.917 30.0208 124.729 29.4375 126.688 29.3125V34.6875C125.146 34.8542 123.854 35.5208 122.812 36.6875C121.812 37.8125 121.312 39.1458 121.312 40.6875ZM127.312 52C125.354 52 123.542 51.5417 121.875 50.625C120.25 49.7083 118.917 48.4792 117.875 46.9375L122.5 44.25C123.083 45 123.792 45.6042 124.625 46.0625C125.458 46.4792 126.354 46.6875 127.312 46.6875C128.188 46.6875 129 46.5208 129.75 46.1875L132.438 50.8125C130.854 51.6042 129.146 52 127.312 52Z" fill="#FF2E4D"/>
<path d="M167 128C167 106.461 149.539 89 128 89H92.4444C90.5421 89 89 90.5421 89 92.4444V128C89 149.539 106.461 167 128 167H163.556C165.458 167 167 165.458 167 163.556V128Z" fill="#FF2E4D"/>
<path d="M167 128C167 106.461 149.539 89 128 89H92.4444C90.5421 89 89 90.5421 89 92.4444V128C89 149.539 106.461 167 128 167H163.556C165.458 167 167 165.458 167 163.556V128Z" stroke="#FF480E" stroke-width="2"/>
<path d="M167 128C167 106.461 149.539 89 128 89H92.4444C90.5421 89 89 90.5421 89 92.4444V128C89 149.539 106.461 167 128 167H163.556C165.458 167 167 165.458 167 163.556V128Z" stroke="#FF2E4D" stroke-width="2"/>
<g opacity="0.25">
<path d="M1 128C1 106.461 18.4609 89 40 89H75.5556C77.4579 89 79 90.5421 79 92.4444V128C79 149.539 61.5391 167 40 167H4.44445C2.54213 167 1 165.458 1 163.556V128Z" stroke="#FF480E" stroke-width="2"/>
<path d="M1 128C1 106.461 18.4609 89 40 89H75.5556C77.4579 89 79 90.5421 79 92.4444V128C79 149.539 61.5391 167 40 167H4.44445C2.54213 167 1 165.458 1 163.556V128Z" stroke="#FF2E4D" stroke-width="2"/>
</g>
<path d="M89 40C89 18.4609 106.461 1 128 1H163.556C165.458 1 167 2.54213 167 4.44444V40C167 61.5391 149.539 79 128 79H92.4444C90.5421 79 89 77.4579 89 75.5556V40Z" stroke="#FF2E4D" stroke-width="2"/>
<path d="M79 40C79 18.4609 61.5391 1 40 1H4.44444C2.54213 1 1 2.54213 1 4.44444V40C1 61.5391 18.4609 79 40 79H75.5556C77.4579 79 79 77.4579 79 75.5556V40Z" stroke="#FF2E4D" stroke-width="2"/>
<path d="M140 136H144V138.688H140V142.688H137.312V138.688H133.312V136H137.312V132H140V136ZM137.312 122.688V120H116V122.688H137.312ZM137.312 128H116V136H130.688V138.688H116C115.25 138.688 114.604 138.438 114.062 137.938C113.562 137.396 113.312 136.75 113.312 136V120C113.312 119.25 113.562 118.625 114.062 118.125C114.604 117.583 115.25 117.312 116 117.312H137.312C138.062 117.312 138.688 117.583 139.188 118.125C139.729 118.625 140 119.25 140 120V129.312H137.312V128Z" fill="#FF480E"/>
<path d="M140 136H144V138.688H140V142.688H137.312V138.688H133.312V136H137.312V132H140V136ZM137.312 122.688V120H116V122.688H137.312ZM137.312 128H116V136H130.688V138.688H116C115.25 138.688 114.604 138.438 114.062 137.938C113.562 137.396 113.312 136.75 113.312 136V120C113.312 119.25 113.562 118.625 114.062 118.125C114.604 117.583 115.25 117.312 116 117.312H137.312C138.062 117.312 138.688 117.583 139.188 118.125C139.729 118.625 140 119.25 140 120V129.312H137.312V128Z" fill="#FBFBFB"/>
</svg>
