<svg width="26" height="23" viewBox="0 0 26 23" fill="none" xmlns="http://www.w3.org/2000/svg">
<path d="M24.125 11.6875L26 13.5625L17.3125 22.3125L12.6875 17.6875L14.5625 15.8125L17.3125 18.5625L24.125 11.6875ZM10.6875 0.3125C12.1458 0.3125 13.3958 0.833333 14.4375 1.875C15.4792 2.91667 16 4.1875 16 5.6875C16 7.14583 15.4792 8.39583 14.4375 9.4375C13.3958 10.4792 12.125 11 10.625 11C9.16667 11 7.91667 10.4792 6.875 9.4375C5.83333 8.39583 5.3125 7.14583 5.3125 5.6875C5.3125 4.1875 5.83333 2.91667 6.875 1.875C7.91667 0.833333 9.1875 0.3125 10.6875 0.3125ZM10.6875 3C9.9375 3 9.29167 3.27083 8.75 3.8125C8.25 4.3125 8 4.9375 8 5.6875C8 6.39583 8.25 7.02083 8.75 7.5625C9.29167 8.0625 9.91667 8.3125 10.625 8.3125C11.375 8.3125 12 8.0625 12.5 7.5625C13.0417 7.02083 13.3125 6.39583 13.3125 5.6875C13.3125 4.9375 13.0417 4.3125 12.5 3.8125C12 3.27083 11.3958 3 10.6875 3ZM10.6875 12.3125C11.5625 12.3125 12.625 12.4375 13.875 12.6875L11.625 14.9375L10.6875 14.875C9.4375 14.875 8.14583 15.0417 6.8125 15.375C5.64583 15.7083 4.64583 16.1042 3.8125 16.5625C2.97917 17.0208 2.5625 17.3958 2.5625 17.6875V19.125H10.8125L13.3125 21.6875H0V17.6875C0 16.5625 0.666667 15.5625 2 14.6875C3.08333 13.9792 4.52083 13.3958 6.3125 12.9375C7.89583 12.5208 9.35417 12.3125 10.6875 12.3125Z" fill="#FF480E"/>
<path d="M24.125 11.6875L26 13.5625L17.3125 22.3125L12.6875 17.6875L14.5625 15.8125L17.3125 18.5625L24.125 11.6875ZM10.6875 0.3125C12.1458 0.3125 13.3958 0.833333 14.4375 1.875C15.4792 2.91667 16 4.1875 16 5.6875C16 7.14583 15.4792 8.39583 14.4375 9.4375C13.3958 10.4792 12.125 11 10.625 11C9.16667 11 7.91667 10.4792 6.875 9.4375C5.83333 8.39583 5.3125 7.14583 5.3125 5.6875C5.3125 4.1875 5.83333 2.91667 6.875 1.875C7.91667 0.833333 9.1875 0.3125 10.6875 0.3125ZM10.6875 3C9.9375 3 9.29167 3.27083 8.75 3.8125C8.25 4.3125 8 4.9375 8 5.6875C8 6.39583 8.25 7.02083 8.75 7.5625C9.29167 8.0625 9.91667 8.3125 10.625 8.3125C11.375 8.3125 12 8.0625 12.5 7.5625C13.0417 7.02083 13.3125 6.39583 13.3125 5.6875C13.3125 4.9375 13.0417 4.3125 12.5 3.8125C12 3.27083 11.3958 3 10.6875 3ZM10.6875 12.3125C11.5625 12.3125 12.625 12.4375 13.875 12.6875L11.625 14.9375L10.6875 14.875C9.4375 14.875 8.14583 15.0417 6.8125 15.375C5.64583 15.7083 4.64583 16.1042 3.8125 16.5625C2.97917 17.0208 2.5625 17.3958 2.5625 17.6875V19.125H10.8125L13.3125 21.6875H0V17.6875C0 16.5625 0.666667 15.5625 2 14.6875C3.08333 13.9792 4.52083 13.3958 6.3125 12.9375C7.89583 12.5208 9.35417 12.3125 10.6875 12.3125Z" fill="#FF2E4D"/>
</svg>
