<svg width="40" height="40" viewBox="0 0 40 40" fill="none" xmlns="http://www.w3.org/2000/svg">
<path d="M20 12.0312C22.1875 12.0312 24.0625 12.8125 25.625 14.375C27.1875 15.9375 27.9688 17.8125 27.9688 20C27.9688 22.1875 27.1875 24.0625 25.625 25.625C24.0625 27.1875 22.1875 27.9688 20 27.9688C17.8125 27.9688 15.9375 27.1875 14.375 25.625C12.8125 24.0625 12.0312 22.1875 12.0312 20C12.0312 17.8125 12.8125 15.9375 14.375 14.375C15.9375 12.8125 17.8125 12.0312 20 12.0312ZM20 15.9688C18.875 15.9688 17.9062 16.375 17.0938 17.1875C16.3438 17.9375 15.9688 18.875 15.9688 20C15.9688 21.125 16.3438 22.0938 17.0938 22.9062C17.9062 23.6562 18.875 24.0312 20 24.0312C21.125 24.0312 22.0625 23.6562 22.8125 22.9062C23.625 22.0938 24.0312 21.125 24.0312 20C24.0312 18.875 23.625 17.9375 22.8125 17.1875C22.0625 16.375 21.125 15.9688 20 15.9688ZM15.9688 39.9688C15.7188 39.9688 15.5 39.875 15.3125 39.6875C15.125 39.5625 15.0312 39.375 15.0312 39.125L14.2812 33.875C13.1562 33.4375 12.0312 32.7812 10.9062 31.9062L5.9375 33.875C5.6875 34 5.4375 34.0312 5.1875 33.9688C4.9375 33.8438 4.78125 33.6875 4.71875 33.5L0.6875 26.5625C0.5625 26.3125 0.5 26.0938 0.5 25.9062C0.5625 25.6562 0.6875 25.4375 0.875 25.25L5.09375 21.9688L5 20L5.09375 18.0312L0.875 14.75C0.6875 14.5625 0.5625 14.375 0.5 14.1875C0.5 13.9375 0.5625 13.6875 0.6875 13.4375L4.71875 6.5C4.78125 6.3125 4.9375 6.1875 5.1875 6.125C5.4375 6 5.6875 6 5.9375 6.125L10.9062 8.09375C12.0312 7.21875 13.1562 6.5625 14.2812 6.125L15.0312 0.875C15.0312 0.625 15.125 0.4375 15.3125 0.3125C15.5 0.125 15.7188 0.03125 15.9688 0.03125H24.0312C24.2812 0.03125 24.5 0.125 24.6875 0.3125C24.875 0.4375 24.9688 0.625 24.9688 0.875L25.7188 6.125C26.8438 6.5625 27.9688 7.21875 29.0938 8.09375L34.0625 6.125C34.3125 6 34.5625 6 34.8125 6.125C35.0625 6.1875 35.2188 6.3125 35.2812 6.5L39.3125 13.4375C39.4375 13.6875 39.4688 13.9375 39.4062 14.1875C39.4062 14.375 39.3125 14.5625 39.125 14.75L34.9062 18.0312L35 20L34.9062 21.9688L39.125 25.25C39.3125 25.4375 39.4062 25.6562 39.4062 25.9062C39.4688 26.0938 39.4375 26.3125 39.3125 26.5625L35.2812 33.5C35.2188 33.6875 35.0625 33.8438 34.8125 33.9688C34.5625 34.0312 34.3125 34 34.0625 33.875L29.0938 31.9062C27.9688 32.7812 26.8438 33.4375 25.7188 33.875L24.9688 39.125C24.9688 39.375 24.875 39.5625 24.6875 39.6875C24.5 39.875 24.2812 39.9688 24.0312 39.9688H15.9688ZM18.5 3.96875L17.75 9.21875C15.3125 9.71875 13.2812 10.9062 11.6562 12.7812L6.875 10.7188L5.375 13.3438L9.59375 16.4375C8.78125 18.8125 8.78125 21.1875 9.59375 23.5625L5.375 26.75L6.875 29.2812L11.75 27.2188C13.375 29.0938 15.375 30.2812 17.75 30.7812L18.5 36.0312H21.5L22.25 30.7812C24.625 30.2812 26.625 29.0938 28.25 27.2188L33.125 29.2812L34.625 26.75L30.4062 23.6562C31.2188 21.2188 31.2188 18.8125 30.4062 16.4375L34.625 13.3438L33.125 10.7188L28.3438 12.7812C26.7188 10.9062 24.6875 9.71875 22.25 9.21875L21.5 3.96875H18.5Z" fill="#FF480E"/>
<path d="M20 12.0312C22.1875 12.0312 24.0625 12.8125 25.625 14.375C27.1875 15.9375 27.9688 17.8125 27.9688 20C27.9688 22.1875 27.1875 24.0625 25.625 25.625C24.0625 27.1875 22.1875 27.9688 20 27.9688C17.8125 27.9688 15.9375 27.1875 14.375 25.625C12.8125 24.0625 12.0312 22.1875 12.0312 20C12.0312 17.8125 12.8125 15.9375 14.375 14.375C15.9375 12.8125 17.8125 12.0312 20 12.0312ZM20 15.9688C18.875 15.9688 17.9062 16.375 17.0938 17.1875C16.3438 17.9375 15.9688 18.875 15.9688 20C15.9688 21.125 16.3438 22.0938 17.0938 22.9062C17.9062 23.6562 18.875 24.0312 20 24.0312C21.125 24.0312 22.0625 23.6562 22.8125 22.9062C23.625 22.0938 24.0312 21.125 24.0312 20C24.0312 18.875 23.625 17.9375 22.8125 17.1875C22.0625 16.375 21.125 15.9688 20 15.9688ZM15.9688 39.9688C15.7188 39.9688 15.5 39.875 15.3125 39.6875C15.125 39.5625 15.0312 39.375 15.0312 39.125L14.2812 33.875C13.1562 33.4375 12.0312 32.7812 10.9062 31.9062L5.9375 33.875C5.6875 34 5.4375 34.0312 5.1875 33.9688C4.9375 33.8438 4.78125 33.6875 4.71875 33.5L0.6875 26.5625C0.5625 26.3125 0.5 26.0938 0.5 25.9062C0.5625 25.6562 0.6875 25.4375 0.875 25.25L5.09375 21.9688L5 20L5.09375 18.0312L0.875 14.75C0.6875 14.5625 0.5625 14.375 0.5 14.1875C0.5 13.9375 0.5625 13.6875 0.6875 13.4375L4.71875 6.5C4.78125 6.3125 4.9375 6.1875 5.1875 6.125C5.4375 6 5.6875 6 5.9375 6.125L10.9062 8.09375C12.0312 7.21875 13.1562 6.5625 14.2812 6.125L15.0312 0.875C15.0312 0.625 15.125 0.4375 15.3125 0.3125C15.5 0.125 15.7188 0.03125 15.9688 0.03125H24.0312C24.2812 0.03125 24.5 0.125 24.6875 0.3125C24.875 0.4375 24.9688 0.625 24.9688 0.875L25.7188 6.125C26.8438 6.5625 27.9688 7.21875 29.0938 8.09375L34.0625 6.125C34.3125 6 34.5625 6 34.8125 6.125C35.0625 6.1875 35.2188 6.3125 35.2812 6.5L39.3125 13.4375C39.4375 13.6875 39.4688 13.9375 39.4062 14.1875C39.4062 14.375 39.3125 14.5625 39.125 14.75L34.9062 18.0312L35 20L34.9062 21.9688L39.125 25.25C39.3125 25.4375 39.4062 25.6562 39.4062 25.9062C39.4688 26.0938 39.4375 26.3125 39.3125 26.5625L35.2812 33.5C35.2188 33.6875 35.0625 33.8438 34.8125 33.9688C34.5625 34.0312 34.3125 34 34.0625 33.875L29.0938 31.9062C27.9688 32.7812 26.8438 33.4375 25.7188 33.875L24.9688 39.125C24.9688 39.375 24.875 39.5625 24.6875 39.6875C24.5 39.875 24.2812 39.9688 24.0312 39.9688H15.9688ZM18.5 3.96875L17.75 9.21875C15.3125 9.71875 13.2812 10.9062 11.6562 12.7812L6.875 10.7188L5.375 13.3438L9.59375 16.4375C8.78125 18.8125 8.78125 21.1875 9.59375 23.5625L5.375 26.75L6.875 29.2812L11.75 27.2188C13.375 29.0938 15.375 30.2812 17.75 30.7812L18.5 36.0312H21.5L22.25 30.7812C24.625 30.2812 26.625 29.0938 28.25 27.2188L33.125 29.2812L34.625 26.75L30.4062 23.6562C31.2188 21.2188 31.2188 18.8125 30.4062 16.4375L34.625 13.3438L33.125 10.7188L28.3438 12.7812C26.7188 10.9062 24.6875 9.71875 22.25 9.21875L21.5 3.96875H18.5Z" fill="#FF2E4D"/>
</svg>
