<svg width="80" height="48" viewBox="0 0 80 48" fill="none" xmlns="http://www.w3.org/2000/svg">
<path d="M43.2812 24C46.5104 24 49.2708 22.8542 51.5625 20.5625C53.8542 18.2708 55 15.5104 55 12.2812C55 9.05208 53.8542 6.34375 51.5625 4.15625C49.2708 1.86458 46.5104 0.71875 43.2812 0.71875C40.0521 0.71875 37.2917 1.86458 35 4.15625C32.8125 6.34375 31.7188 9.05208 31.7188 12.2812C31.7188 15.5104 32.8125 18.2708 35 20.5625C37.2917 22.8542 40.0521 24 43.2812 24ZM43.2812 7.28125C44.7396 7.28125 45.9375 7.80208 46.875 8.84375C47.8125 9.78125 48.2812 10.9792 48.2812 12.4375C48.2812 13.7917 47.8125 14.9375 46.875 15.875C45.9375 16.8125 44.7396 17.2812 43.2812 17.2812C41.9271 17.2812 40.7292 16.8125 39.6875 15.875C38.75 14.9375 38.2812 13.7917 38.2812 12.4375C38.2812 10.9792 38.75 9.78125 39.6875 8.84375C40.7292 7.80208 41.9271 7.28125 43.2812 7.28125ZM57.5 23.8438C60.3125 20.5104 61.7188 16.6562 61.7188 12.2812C61.7188 7.90625 60.3125 4.05208 57.5 0.71875C57.7083 0.71875 57.9688 0.71875 58.2812 0.71875C61.5104 0.71875 64.2708 1.86458 66.5625 4.15625C68.8542 6.34375 70 9.05208 70 12.2812C70 15.5104 68.8542 18.2708 66.5625 20.5625C64.2708 22.8542 61.5104 24 58.2812 24C57.9688 24 57.7083 23.9479 57.5 23.8438ZM16.7188 27.2812V37.2812H10V27.2812H0V20.7188H10V10.7188H16.7188V20.7188H26.7188V27.2812H16.7188ZM80 41.5V47.2812H69.8438V41.5C69.8438 37.0208 67.6562 33.2188 63.2812 30.0938C67.8646 30.5104 71.6667 31.6562 74.6875 33.5312C78.2292 35.7188 80 38.375 80 41.5ZM43.2812 29.7812C40.4688 29.7812 37.6042 30.25 34.6875 31.1875C31.3542 32.125 28.6979 33.4271 26.7188 35.0938C24.4271 36.9688 23.2812 39.1042 23.2812 41.5V47.2812H63.2812V41.5C63.2812 39.1042 62.1354 36.9688 59.8438 35.0938C57.8646 33.4271 55.2604 32.125 52.0312 31.1875C49.0104 30.25 46.0938 29.7812 43.2812 29.7812ZM31.0938 40.7188C32.9688 39.3646 34.6354 38.4271 36.0938 37.9062C38.2812 36.9688 40.6771 36.5 43.2812 36.5C45.9896 36.5 48.4375 36.9688 50.625 37.9062C51.9792 38.4271 53.5938 39.3646 55.4688 40.7188H31.0938Z" fill="#FF480E"/>
<path d="M43.2812 24C46.5104 24 49.2708 22.8542 51.5625 20.5625C53.8542 18.2708 55 15.5104 55 12.2812C55 9.05208 53.8542 6.34375 51.5625 4.15625C49.2708 1.86458 46.5104 0.71875 43.2812 0.71875C40.0521 0.71875 37.2917 1.86458 35 4.15625C32.8125 6.34375 31.7188 9.05208 31.7188 12.2812C31.7188 15.5104 32.8125 18.2708 35 20.5625C37.2917 22.8542 40.0521 24 43.2812 24ZM43.2812 7.28125C44.7396 7.28125 45.9375 7.80208 46.875 8.84375C47.8125 9.78125 48.2812 10.9792 48.2812 12.4375C48.2812 13.7917 47.8125 14.9375 46.875 15.875C45.9375 16.8125 44.7396 17.2812 43.2812 17.2812C41.9271 17.2812 40.7292 16.8125 39.6875 15.875C38.75 14.9375 38.2812 13.7917 38.2812 12.4375C38.2812 10.9792 38.75 9.78125 39.6875 8.84375C40.7292 7.80208 41.9271 7.28125 43.2812 7.28125ZM57.5 23.8438C60.3125 20.5104 61.7188 16.6562 61.7188 12.2812C61.7188 7.90625 60.3125 4.05208 57.5 0.71875C57.7083 0.71875 57.9688 0.71875 58.2812 0.71875C61.5104 0.71875 64.2708 1.86458 66.5625 4.15625C68.8542 6.34375 70 9.05208 70 12.2812C70 15.5104 68.8542 18.2708 66.5625 20.5625C64.2708 22.8542 61.5104 24 58.2812 24C57.9688 24 57.7083 23.9479 57.5 23.8438ZM16.7188 27.2812V37.2812H10V27.2812H0V20.7188H10V10.7188H16.7188V20.7188H26.7188V27.2812H16.7188ZM80 41.5V47.2812H69.8438V41.5C69.8438 37.0208 67.6562 33.2188 63.2812 30.0938C67.8646 30.5104 71.6667 31.6562 74.6875 33.5312C78.2292 35.7188 80 38.375 80 41.5ZM43.2812 29.7812C40.4688 29.7812 37.6042 30.25 34.6875 31.1875C31.3542 32.125 28.6979 33.4271 26.7188 35.0938C24.4271 36.9688 23.2812 39.1042 23.2812 41.5V47.2812H63.2812V41.5C63.2812 39.1042 62.1354 36.9688 59.8438 35.0938C57.8646 33.4271 55.2604 32.125 52.0312 31.1875C49.0104 30.25 46.0938 29.7812 43.2812 29.7812ZM31.0938 40.7188C32.9688 39.3646 34.6354 38.4271 36.0938 37.9062C38.2812 36.9688 40.6771 36.5 43.2812 36.5C45.9896 36.5 48.4375 36.9688 50.625 37.9062C51.9792 38.4271 53.5938 39.3646 55.4688 40.7188H31.0938Z" fill="#FF2E4D"/>
</svg>
