<svg width="185" height="8" viewBox="0 0 185 8" fill="none" xmlns="http://www.w3.org/2000/svg">
<circle cx="181" cy="4" r="4" fill="#FF480E"/>
<circle cx="181" cy="4" r="4" fill="#FF2E4D"/>
<path d="M181 3.5C181.276 3.5 181.5 3.72386 181.5 4C181.5 4.27614 181.276 4.5 181 4.5V3.5ZM0.646439 4.35355C0.451187 4.15829 0.451187 3.84171 0.646439 3.64645L3.82843 0.464466C4.02368 0.269204 4.34027 0.269204 4.53554 0.464466C4.73079 0.659728 4.73079 0.976311 4.53554 1.17157L1.70711 4L4.53554 6.82843C4.73079 7.02369 4.73079 7.34027 4.53554 7.53553C4.34027 7.7308 4.02368 7.7308 3.82843 7.53553L0.646439 4.35355ZM181 4.5H1V3.5H181V4.5Z" fill="#FF480E"/>
<path d="M181 3.5C181.276 3.5 181.5 3.72386 181.5 4C181.5 4.27614 181.276 4.5 181 4.5V3.5ZM0.646439 4.35355C0.451187 4.15829 0.451187 3.84171 0.646439 3.64645L3.82843 0.464466C4.02368 0.269204 4.34027 0.269204 4.53554 0.464466C4.73079 0.659728 4.73079 0.976311 4.53554 1.17157L1.70711 4L4.53554 6.82843C4.73079 7.02369 4.73079 7.34027 4.53554 7.53553C4.34027 7.7308 4.02368 7.7308 3.82843 7.53553L0.646439 4.35355ZM181 4.5H1V3.5H181V4.5Z" fill="#FF2E4D"/>
</svg>
