<svg width="40" height="40" viewBox="0 0 40 40" fill="none" xmlns="http://www.w3.org/2000/svg">
<path d="M16.6875 8C18.2292 8 19.6667 8.39583 21 9.1875C22.3333 9.9375 23.375 10.9792 24.125 12.3125C24.9167 13.6458 25.3125 15.1042 25.3125 16.6875C25.3125 18.8125 24.625 20.6875 23.25 22.3125L23.625 22.6875H24.6875L31.3125 29.3125L29.3125 31.3125L22.6875 24.6875V23.625L22.3125 23.25C20.6875 24.625 18.8125 25.3125 16.6875 25.3125C15.5208 25.3125 14.3958 25.1042 13.3125 24.6875C12.2708 24.2292 11.3333 23.6042 10.5 22.8125C9.70833 21.9792 9.08333 21.0417 8.625 20C8.20833 18.9167 8 17.8125 8 16.6875C8 15.1042 8.375 13.6458 9.125 12.3125C9.91667 10.9792 10.9792 9.9375 12.3125 9.1875C13.6458 8.39583 15.1042 8 16.6875 8ZM16.6875 10.6875C15.0208 10.6875 13.6042 11.2708 12.4375 12.4375C11.2708 13.6042 10.6875 15.0208 10.6875 16.6875C10.6875 18.3542 11.2708 19.7708 12.4375 20.9375C13.6042 22.1042 15.0208 22.6875 16.6875 22.6875C18.3542 22.6875 19.7708 22.1042 20.9375 20.9375C22.1042 19.7708 22.6875 18.3542 22.6875 16.6875C22.6875 15.0208 22.1042 13.6042 20.9375 12.4375C19.7708 11.2708 18.3542 10.6875 16.6875 10.6875Z" fill="#FF2E4D"/>
</svg>
