<svg width="32" height="32" viewBox="0 0 32 32" fill="none" xmlns="http://www.w3.org/2000/svg">
<path d="M16 20C17.0417 20 17.9583 19.6042 18.75 18.8125C19.5833 17.9792 20 17.0417 20 16C20 14.9583 19.5833 14.0417 18.75 13.25C17.9583 12.4167 17.0417 12 16 12C14.9583 12 14.0208 12.4167 13.1875 13.25C12.3958 14.0417 12 14.9583 12 16C12 17.0417 12.3958 17.9792 13.1875 18.8125C14.0208 19.6042 14.9583 20 16 20ZM16 2.6875C19.625 2.6875 22.75 4 25.375 6.625C28 9.25 29.3125 12.375 29.3125 16V17.9375C29.3125 19.2292 28.8542 20.3542 27.9375 21.3125C27.0625 22.2292 25.9792 22.6875 24.6875 22.6875C23.0625 22.6875 21.75 22.0208 20.75 20.6875C19.4167 22.0208 17.8333 22.6875 16 22.6875C14.2083 22.6875 12.6458 22.0208 11.3125 20.6875C9.97917 19.3542 9.3125 17.7917 9.3125 16C9.3125 14.2083 9.97917 12.6458 11.3125 11.3125C12.6458 9.97917 14.2083 9.3125 16 9.3125C17.7917 9.3125 19.3542 9.97917 20.6875 11.3125C22.0208 12.6458 22.6875 14.2083 22.6875 16V17.9375C22.6875 18.4792 22.875 18.9583 23.25 19.375C23.6667 19.7917 24.1458 20 24.6875 20C25.2292 20 25.6875 19.7917 26.0625 19.375C26.4792 18.9583 26.6875 18.4792 26.6875 17.9375V16C26.6875 13.0833 25.625 10.5833 23.5 8.5C21.4167 6.375 18.9167 5.3125 16 5.3125C13.0833 5.3125 10.5625 6.375 8.4375 8.5C6.35417 10.5833 5.3125 13.0833 5.3125 16C5.3125 18.9167 6.35417 21.4375 8.4375 23.5625C10.5625 25.6458 13.0833 26.6875 16 26.6875H22.6875V29.3125H16C12.375 29.3125 9.25 28 6.625 25.375C4 22.75 2.6875 19.625 2.6875 16C2.6875 12.375 4 9.25 6.625 6.625C9.25 4 12.375 2.6875 16 2.6875Z" fill="#FF480E"/>
<path d="M16 20C17.0417 20 17.9583 19.6042 18.75 18.8125C19.5833 17.9792 20 17.0417 20 16C20 14.9583 19.5833 14.0417 18.75 13.25C17.9583 12.4167 17.0417 12 16 12C14.9583 12 14.0208 12.4167 13.1875 13.25C12.3958 14.0417 12 14.9583 12 16C12 17.0417 12.3958 17.9792 13.1875 18.8125C14.0208 19.6042 14.9583 20 16 20ZM16 2.6875C19.625 2.6875 22.75 4 25.375 6.625C28 9.25 29.3125 12.375 29.3125 16V17.9375C29.3125 19.2292 28.8542 20.3542 27.9375 21.3125C27.0625 22.2292 25.9792 22.6875 24.6875 22.6875C23.0625 22.6875 21.75 22.0208 20.75 20.6875C19.4167 22.0208 17.8333 22.6875 16 22.6875C14.2083 22.6875 12.6458 22.0208 11.3125 20.6875C9.97917 19.3542 9.3125 17.7917 9.3125 16C9.3125 14.2083 9.97917 12.6458 11.3125 11.3125C12.6458 9.97917 14.2083 9.3125 16 9.3125C17.7917 9.3125 19.3542 9.97917 20.6875 11.3125C22.0208 12.6458 22.6875 14.2083 22.6875 16V17.9375C22.6875 18.4792 22.875 18.9583 23.25 19.375C23.6667 19.7917 24.1458 20 24.6875 20C25.2292 20 25.6875 19.7917 26.0625 19.375C26.4792 18.9583 26.6875 18.4792 26.6875 17.9375V16C26.6875 13.0833 25.625 10.5833 23.5 8.5C21.4167 6.375 18.9167 5.3125 16 5.3125C13.0833 5.3125 10.5625 6.375 8.4375 8.5C6.35417 10.5833 5.3125 13.0833 5.3125 16C5.3125 18.9167 6.35417 21.4375 8.4375 23.5625C10.5625 25.6458 13.0833 26.6875 16 26.6875H22.6875V29.3125H16C12.375 29.3125 9.25 28 6.625 25.375C4 22.75 2.6875 19.625 2.6875 16C2.6875 12.375 4 9.25 6.625 6.625C9.25 4 12.375 2.6875 16 2.6875Z" fill="#1FE39D"/>
</svg>
