<svg width="72" height="150" viewBox="0 0 72 150" fill="none" xmlns="http://www.w3.org/2000/svg">
<path d="M71 4C71 2.34314 69.6569 1 68 1H32C14.8792 1 1 14.8792 1 32V146C1 147.657 2.34315 149 4 149H40C57.1208 149 71 135.121 71 118V4Z" stroke="#FF2E4D" stroke-width="2"/>
<path d="M52.7082 81.3014C52.5214 81.114 52.268 81.0089 52.0039 81.0089H50.3054V63.9985C50.3054 63.447 49.8592 63 49.3093 63H22.6892C22.139 63 21.6931 63.447 21.6931 63.9985V81.0089H19.9961C19.7318 81.0089 19.4783 81.114 19.2916 81.3014C19.1048 81.4887 19 81.743 19 82.0077L19.0003 82.6747C19.001 85.0597 20.9375 87 23.3167 87H48.6836C51.0636 87 53 85.0591 53 82.6734V82.0074C53 81.7427 52.8952 81.4887 52.7082 81.3014ZM34.0872 77.7115C32.4621 76.9704 31.3863 75.3439 31.3469 73.5676C31.316 72.1796 31.8826 70.8989 32.8613 70.0102V72.871C32.8613 74.1558 33.9041 75.2009 35.1855 75.2009H36.8119C38.0936 75.2009 39.1361 74.1558 39.1361 72.871V70.013C40.0866 70.8794 40.6518 72.1187 40.6518 73.4608C40.6518 75.2893 39.5769 76.9582 37.9128 77.7125C37.5564 77.874 37.3271 78.23 37.3271 78.6221V81.0089H34.6708V78.6205C34.6708 78.2289 34.4428 77.8735 34.0872 77.7115ZM23.6853 64.997H48.3132V81.0089H39.3193V79.2306C41.3584 78.0495 42.644 75.8507 42.644 73.4608C42.644 70.746 41.0246 68.3265 38.518 67.2962C38.2109 67.1698 37.8612 67.2052 37.5852 67.3909C37.3094 67.5763 37.144 67.8873 37.144 68.2201V72.871C37.144 73.0546 36.9951 73.2038 36.8119 73.2038H35.1855C35.0023 73.2038 34.8535 73.0546 34.8535 72.871V68.2201C34.8535 67.8873 34.688 67.5763 34.4122 67.3909C34.1365 67.2055 33.7868 67.1701 33.4794 67.2962C32.2506 67.8012 31.2099 68.6546 30.4701 69.7644C29.7101 70.9041 29.3246 72.2347 29.355 73.6121C29.4066 75.9305 30.6906 78.069 32.6786 79.2272L32.6784 81.0089H23.6853V64.997ZM48.6836 85.003H23.3167C22.1478 85.003 21.1777 84.1337 21.0161 83.0059H50.9842C50.8226 84.1337 49.8524 85.003 48.6836 85.003Z" fill="#FF2E4D" stroke="#FF2E4D" stroke-width="0.5"/>
</svg>
