<svg width="150" height="72" viewBox="0 0 150 72" fill="none" xmlns="http://www.w3.org/2000/svg">
<path d="M82.875 43.1875C82.7083 42.6458 82.375 42.2083 81.875 41.875C81.4167 41.5 80.8958 41.3125 80.3125 41.3125H79V37.3125C79 36.9375 78.875 36.625 78.625 36.375C78.375 36.125 78.0625 36 77.6875 36H69.6875V33.3125H72.3125C72.6875 33.3125 73 33.1875 73.25 32.9375C73.5417 32.6875 73.6875 32.375 73.6875 32V29.3125H76.3125C77.0625 29.3125 77.6875 29.0625 78.1875 28.5625C78.7292 28.0208 79 27.3958 79 26.6875V26.125C81 26.9167 82.6042 28.2083 83.8125 30C85.0625 31.7917 85.6875 33.7917 85.6875 36C85.6875 37.375 85.4375 38.6875 84.9375 39.9375C84.4375 41.1458 83.75 42.2292 82.875 43.1875ZM73.6875 46.5625C71.9375 46.3542 70.3542 45.75 68.9375 44.75C67.5208 43.75 66.3958 42.5 65.5625 41C64.7292 39.4583 64.3125 37.7917 64.3125 36C64.3125 35.2083 64.4167 34.4167 64.625 33.625L71 40V41.3125C71 42.0625 71.25 42.7083 71.75 43.25C72.2917 43.75 72.9375 44 73.6875 44V46.5625ZM75 22.6875C73.25 22.6875 71.5417 23.0208 69.875 23.6875C68.25 24.3542 66.8125 25.3125 65.5625 26.5625C64.3125 27.8125 63.3542 29.2708 62.6875 30.9375C62.0208 32.5625 61.6875 34.25 61.6875 36C61.6875 37.75 62.0208 39.4583 62.6875 41.125C63.3542 42.75 64.3125 44.1875 65.5625 45.4375C66.8125 46.6875 68.25 47.6458 69.875 48.3125C71.5417 48.9792 73.25 49.3125 75 49.3125C76.75 49.3125 78.4375 48.9792 80.0625 48.3125C81.7292 47.6458 83.1875 46.6875 84.4375 45.4375C85.6875 44.1875 86.6458 42.75 87.3125 41.125C87.9792 39.4583 88.3125 37.75 88.3125 36C88.3125 34.25 87.9792 32.5625 87.3125 30.9375C86.6458 29.2708 85.6875 27.8125 84.4375 26.5625C83.1875 25.3125 81.7292 24.3542 80.0625 23.6875C78.4375 23.0208 76.75 22.6875 75 22.6875Z" fill="#FF480E"/>
<path d="M82.875 43.1875C82.7083 42.6458 82.375 42.2083 81.875 41.875C81.4167 41.5 80.8958 41.3125 80.3125 41.3125H79V37.3125C79 36.9375 78.875 36.625 78.625 36.375C78.375 36.125 78.0625 36 77.6875 36H69.6875V33.3125H72.3125C72.6875 33.3125 73 33.1875 73.25 32.9375C73.5417 32.6875 73.6875 32.375 73.6875 32V29.3125H76.3125C77.0625 29.3125 77.6875 29.0625 78.1875 28.5625C78.7292 28.0208 79 27.3958 79 26.6875V26.125C81 26.9167 82.6042 28.2083 83.8125 30C85.0625 31.7917 85.6875 33.7917 85.6875 36C85.6875 37.375 85.4375 38.6875 84.9375 39.9375C84.4375 41.1458 83.75 42.2292 82.875 43.1875ZM73.6875 46.5625C71.9375 46.3542 70.3542 45.75 68.9375 44.75C67.5208 43.75 66.3958 42.5 65.5625 41C64.7292 39.4583 64.3125 37.7917 64.3125 36C64.3125 35.2083 64.4167 34.4167 64.625 33.625L71 40V41.3125C71 42.0625 71.25 42.7083 71.75 43.25C72.2917 43.75 72.9375 44 73.6875 44V46.5625ZM75 22.6875C73.25 22.6875 71.5417 23.0208 69.875 23.6875C68.25 24.3542 66.8125 25.3125 65.5625 26.5625C64.3125 27.8125 63.3542 29.2708 62.6875 30.9375C62.0208 32.5625 61.6875 34.25 61.6875 36C61.6875 37.75 62.0208 39.4583 62.6875 41.125C63.3542 42.75 64.3125 44.1875 65.5625 45.4375C66.8125 46.6875 68.25 47.6458 69.875 48.3125C71.5417 48.9792 73.25 49.3125 75 49.3125C76.75 49.3125 78.4375 48.9792 80.0625 48.3125C81.7292 47.6458 83.1875 46.6875 84.4375 45.4375C85.6875 44.1875 86.6458 42.75 87.3125 41.125C87.9792 39.4583 88.3125 37.75 88.3125 36C88.3125 34.25 87.9792 32.5625 87.3125 30.9375C86.6458 29.2708 85.6875 27.8125 84.4375 26.5625C83.1875 25.3125 81.7292 24.3542 80.0625 23.6875C78.4375 23.0208 76.75 22.6875 75 22.6875Z" fill="#FF2E4D"/>
<path d="M1 4C1 2.34315 2.34315 1 4 1H118C135.121 1 149 14.8792 149 32V68C149 69.6569 147.657 71 146 71H32C14.8792 71 1 57.1208 1 40V4Z" stroke="#FF2E4D" stroke-width="2"/>
</svg>
