<svg width="72" height="150" viewBox="0 0 72 150" fill="none" xmlns="http://www.w3.org/2000/svg">
<path d="M71 4C71 2.34314 69.6569 1 68 1H32C14.8792 1 1 14.8792 1 32V146C1 147.657 2.34315 149 4 149H40C57.1208 149 71 135.121 71 118V4Z" stroke="#FF2E4D" stroke-width="2"/>
<path d="M37.1001 62.2573V66.2573C38.6001 66.5073 39.9543 67.0698 41.1626 67.9448C42.4126 68.7782 43.371 69.8615 44.0376 71.1948C44.746 72.5282 45.1001 73.9657 45.1001 75.5073C45.1001 76.674 44.8918 77.799 44.4751 78.8823L47.9751 80.9448C48.7251 79.1948 49.1001 77.3823 49.1001 75.5073C49.1001 73.2573 48.5585 71.1532 47.4751 69.1948C46.4335 67.2365 44.996 65.6532 43.1626 64.4448C41.371 63.1948 39.3501 62.4657 37.1001 62.2573ZM35.7876 84.8198C34.0793 84.8198 32.5168 84.4032 31.1001 83.5698C29.6834 82.7365 28.5584 81.6115 27.7251 80.1948C26.8918 78.7782 26.4751 77.2157 26.4751 75.5073C26.4751 73.9657 26.8084 72.5282 27.4751 71.1948C28.1834 69.8615 29.1418 68.7782 30.3501 67.9448C31.6001 67.0698 32.9751 66.5073 34.4751 66.2573V62.2573C32.2251 62.4657 30.1834 63.1948 28.3501 64.4448C26.5168 65.6532 25.0793 67.2365 24.0376 69.1948C22.9959 71.1532 22.4751 73.2573 22.4751 75.5073C22.4751 77.2573 22.8084 78.9657 23.4751 80.6323C24.1418 82.2573 25.1001 83.6948 26.3501 84.9448C27.6001 86.1948 29.0376 87.1532 30.6626 87.8198C32.3293 88.4865 34.0376 88.8198 35.7876 88.8198C37.9543 88.8198 39.9751 88.3407 41.8501 87.3823C43.7251 86.424 45.2876 85.0907 46.5376 83.3823L43.0376 81.3198C42.1626 82.4448 41.1001 83.3198 39.8501 83.9448C38.6001 84.5282 37.246 84.8198 35.7876 84.8198Z" fill="#FF2E4D"/>
</svg>
