<svg width="150" height="72" viewBox="0 0 150 72" fill="none" xmlns="http://www.w3.org/2000/svg">
<path d="M149 4C149 2.34315 147.657 1 146 1H32C14.8792 1 1 14.8792 1 32V68C1 69.6569 2.34315 71 4 71H118C135.121 71 149 57.1208 149 40V4Z" stroke="#FF2E4D" stroke-width="2"/>
<path d="M71.875 37.875C70.5 36.6667 68.875 36.0417 67 36V40L61.6875 34.6875L67 29.3125V33.3125C69.2917 33.3125 71.3542 34.0208 73.1875 35.4375C72.6458 36.1875 72.2083 37 71.875 37.875ZM83 40V36C81.8333 36 80.7292 36.25 79.6875 36.75C77.7292 37.7083 76.625 39.3333 76.375 41.625C77.4167 41.9583 78.1667 42.625 78.625 43.625C79.125 44.625 79.1875 45.6458 78.8125 46.6875C78.4792 47.7292 77.8125 48.4792 76.8125 48.9375C75.8125 49.4375 74.7917 49.5 73.75 49.125C72.7083 48.75 71.9375 48.0833 71.4375 47.125C70.9792 46.125 70.9375 45.1042 71.3125 44.0625C71.4792 43.4792 71.7708 42.9792 72.1875 42.5625C72.6458 42.1042 73.1667 41.7917 73.75 41.625C73.875 40.0417 74.3542 38.6042 75.1875 37.3125C76.0625 36.0208 77.1875 35.0208 78.5625 34.3125C79.9375 33.6042 81.4167 33.2708 83 33.3125V29.3125L88.3125 34.6875L83 40ZM76.3125 45.3125C76.3125 44.9375 76.1875 44.625 75.9375 44.375C75.6875 44.125 75.375 44 75 44C74.625 44 74.3125 44.125 74.0625 44.375C73.8125 44.625 73.6875 44.9375 73.6875 45.3125C73.6875 45.6875 73.8125 46.0208 74.0625 46.3125C74.3125 46.5625 74.625 46.6875 75 46.6875C75.375 46.6875 75.6875 46.5625 75.9375 46.3125C76.1875 46.0208 76.3125 45.6875 76.3125 45.3125ZM73.6875 34.8125C74.4792 33.9375 75.3542 33.1875 76.3125 32.5625V26.6875H80.3125L75 21.3125L69.6875 26.6875H73.6875V34.8125Z" fill="#FF480E"/>
<path d="M71.875 37.875C70.5 36.6667 68.875 36.0417 67 36V40L61.6875 34.6875L67 29.3125V33.3125C69.2917 33.3125 71.3542 34.0208 73.1875 35.4375C72.6458 36.1875 72.2083 37 71.875 37.875ZM83 40V36C81.8333 36 80.7292 36.25 79.6875 36.75C77.7292 37.7083 76.625 39.3333 76.375 41.625C77.4167 41.9583 78.1667 42.625 78.625 43.625C79.125 44.625 79.1875 45.6458 78.8125 46.6875C78.4792 47.7292 77.8125 48.4792 76.8125 48.9375C75.8125 49.4375 74.7917 49.5 73.75 49.125C72.7083 48.75 71.9375 48.0833 71.4375 47.125C70.9792 46.125 70.9375 45.1042 71.3125 44.0625C71.4792 43.4792 71.7708 42.9792 72.1875 42.5625C72.6458 42.1042 73.1667 41.7917 73.75 41.625C73.875 40.0417 74.3542 38.6042 75.1875 37.3125C76.0625 36.0208 77.1875 35.0208 78.5625 34.3125C79.9375 33.6042 81.4167 33.2708 83 33.3125V29.3125L88.3125 34.6875L83 40ZM76.3125 45.3125C76.3125 44.9375 76.1875 44.625 75.9375 44.375C75.6875 44.125 75.375 44 75 44C74.625 44 74.3125 44.125 74.0625 44.375C73.8125 44.625 73.6875 44.9375 73.6875 45.3125C73.6875 45.6875 73.8125 46.0208 74.0625 46.3125C74.3125 46.5625 74.625 46.6875 75 46.6875C75.375 46.6875 75.6875 46.5625 75.9375 46.3125C76.1875 46.0208 76.3125 45.6875 76.3125 45.3125ZM73.6875 34.8125C74.4792 33.9375 75.3542 33.1875 76.3125 32.5625V26.6875H80.3125L75 21.3125L69.6875 26.6875H73.6875V34.8125Z" fill="#FF2E4D"/>
</svg>
