<svg width="185" height="8" viewBox="0 0 185 8" fill="none" xmlns="http://www.w3.org/2000/svg">
<circle r="4" transform="matrix(-1 0 0 1 4 4)" fill="#FF480E"/>
<circle r="4" transform="matrix(-1 0 0 1 4 4)" fill="#FF2E4D"/>
<path d="M4 3.5C3.72386 3.5 3.5 3.72386 3.5 4C3.5 4.27614 3.72386 4.5 4 4.5V3.5ZM184.354 4.35355C184.549 4.15829 184.549 3.84171 184.354 3.64645L181.172 0.464466C180.976 0.269204 180.66 0.269204 180.464 0.464466C180.269 0.659728 180.269 0.976311 180.464 1.17157L183.293 4L180.464 6.82843C180.269 7.02369 180.269 7.34027 180.464 7.53553C180.66 7.7308 180.976 7.7308 181.172 7.53553L184.354 4.35355ZM4 4.5H184V3.5H4V4.5Z" fill="#FF480E"/>
<path d="M4 3.5C3.72386 3.5 3.5 3.72386 3.5 4C3.5 4.27614 3.72386 4.5 4 4.5V3.5ZM184.354 4.35355C184.549 4.15829 184.549 3.84171 184.354 3.64645L181.172 0.464466C180.976 0.269204 180.66 0.269204 180.464 0.464466C180.269 0.659728 180.269 0.976311 180.464 1.17157L183.293 4L180.464 6.82843C180.269 7.02369 180.269 7.34027 180.464 7.53553C180.66 7.7308 180.976 7.7308 181.172 7.53553L184.354 4.35355ZM4 4.5H184V3.5H4V4.5Z" fill="#FF2E4D"/>
</svg>
