<svg width="24" height="24" viewBox="0 0 24 24" fill="none" xmlns="http://www.w3.org/2000/svg">
<path d="M17.5625 22.125L14.875 17.5C15.5417 17 16.0833 16.3958 16.5 15.6875C16.9167 14.9792 17.1875 14.1875 17.3125 13.3125H22.6875C22.5625 15.1458 22.0417 16.8333 21.125 18.375C20.2083 19.9167 19.0208 21.1667 17.5625 22.125ZM13.3125 5.375V0C15.2292 0.125 16.9792 0.666667 18.5625 1.625C20.1458 2.58333 21.4167 3.85417 22.375 5.4375C23.3333 7.02083 23.875 8.77083 24 10.6875H18.625C18.4583 9.27083 17.875 8.08333 16.875 7.125C15.9167 6.125 14.7292 5.54167 13.3125 5.375ZM5.3125 12.6875C5.3125 13.5208 5.47917 14.3125 5.8125 15.0625L1.1875 17.75C0.395833 16.1667 0 14.4792 0 12.6875C0 10.6875 0.458333 8.85417 1.375 7.1875C2.33333 5.47917 3.625 4.10417 5.25 3.0625C6.91667 2.02083 8.72917 1.4375 10.6875 1.3125V6.6875C9.14583 6.85417 7.85417 7.52083 6.8125 8.6875C5.8125 9.8125 5.3125 11.1458 5.3125 12.6875ZM11.3125 24C9.35417 24 7.54167 23.5417 5.875 22.625C4.25 21.7083 2.91667 20.4792 1.875 18.9375L6.5 16.25C7.08333 17 7.79167 17.6042 8.625 18.0625C9.45833 18.4792 10.3542 18.6875 11.3125 18.6875C12.1875 18.6875 13 18.5208 13.75 18.1875L16.4375 22.8125C14.8542 23.6042 13.1458 24 11.3125 24Z" fill="#FF480E"/>
<path d="M17.5625 22.125L14.875 17.5C15.5417 17 16.0833 16.3958 16.5 15.6875C16.9167 14.9792 17.1875 14.1875 17.3125 13.3125H22.6875C22.5625 15.1458 22.0417 16.8333 21.125 18.375C20.2083 19.9167 19.0208 21.1667 17.5625 22.125ZM13.3125 5.375V0C15.2292 0.125 16.9792 0.666667 18.5625 1.625C20.1458 2.58333 21.4167 3.85417 22.375 5.4375C23.3333 7.02083 23.875 8.77083 24 10.6875H18.625C18.4583 9.27083 17.875 8.08333 16.875 7.125C15.9167 6.125 14.7292 5.54167 13.3125 5.375ZM5.3125 12.6875C5.3125 13.5208 5.47917 14.3125 5.8125 15.0625L1.1875 17.75C0.395833 16.1667 0 14.4792 0 12.6875C0 10.6875 0.458333 8.85417 1.375 7.1875C2.33333 5.47917 3.625 4.10417 5.25 3.0625C6.91667 2.02083 8.72917 1.4375 10.6875 1.3125V6.6875C9.14583 6.85417 7.85417 7.52083 6.8125 8.6875C5.8125 9.8125 5.3125 11.1458 5.3125 12.6875ZM11.3125 24C9.35417 24 7.54167 23.5417 5.875 22.625C4.25 21.7083 2.91667 20.4792 1.875 18.9375L6.5 16.25C7.08333 17 7.79167 17.6042 8.625 18.0625C9.45833 18.4792 10.3542 18.6875 11.3125 18.6875C12.1875 18.6875 13 18.5208 13.75 18.1875L16.4375 22.8125C14.8542 23.6042 13.1458 24 11.3125 24Z" fill="#FF2E4D"/>
</svg>
