<svg width="32" height="32" viewBox="0 0 32 32" fill="none" xmlns="http://www.w3.org/2000/svg">
<path d="M26.6875 20.6875C24.9375 20.6875 23.3333 20.4167 21.875 19.875H21.4375C21.1042 19.875 20.8125 20 20.5625 20.25L17.625 23.1875C15.7083 22.1875 13.9792 20.9375 12.4375 19.4375C10.9375 17.8958 9.72917 16.2083 8.8125 14.375L11.75 11.4375C11.9583 11.2708 12.0833 11.0625 12.125 10.8125C12.1667 10.5625 12.125 10.3333 12 10.125C11.5417 8.5 11.3125 6.89583 11.3125 5.3125C11.3125 4.97917 11.1667 4.6875 10.875 4.4375C10.625 4.14583 10.3333 4 10 4H5.3125C4.97917 4 4.66667 4.14583 4.375 4.4375C4.125 4.6875 4 4.97917 4 5.3125C4 9.4375 5.02083 13.25 7.0625 16.75C9.0625 20.2083 11.7917 22.9375 15.25 24.9375C18.75 26.9792 22.5625 28 26.6875 28C27.0208 28 27.3125 27.875 27.5625 27.625C27.8542 27.3333 28 27.0208 28 26.6875V22C28 21.6667 27.8542 21.375 27.5625 21.125C27.3125 20.8333 27.0208 20.6875 26.6875 20.6875ZM6.6875 6.6875H8.6875C8.77083 7.64583 8.97917 8.79167 9.3125 10.125L7.75 11.75C7.16667 9.95833 6.8125 8.27083 6.6875 6.6875ZM25.3125 25.3125C23.7292 25.1875 22.0417 24.8333 20.25 24.25L21.875 22.6875C23.2917 23.0208 24.4375 23.1875 25.3125 23.1875V25.3125Z" fill="#FF480E"/>
<path d="M26.6875 20.6875C24.9375 20.6875 23.3333 20.4167 21.875 19.875H21.4375C21.1042 19.875 20.8125 20 20.5625 20.25L17.625 23.1875C15.7083 22.1875 13.9792 20.9375 12.4375 19.4375C10.9375 17.8958 9.72917 16.2083 8.8125 14.375L11.75 11.4375C11.9583 11.2708 12.0833 11.0625 12.125 10.8125C12.1667 10.5625 12.125 10.3333 12 10.125C11.5417 8.5 11.3125 6.89583 11.3125 5.3125C11.3125 4.97917 11.1667 4.6875 10.875 4.4375C10.625 4.14583 10.3333 4 10 4H5.3125C4.97917 4 4.66667 4.14583 4.375 4.4375C4.125 4.6875 4 4.97917 4 5.3125C4 9.4375 5.02083 13.25 7.0625 16.75C9.0625 20.2083 11.7917 22.9375 15.25 24.9375C18.75 26.9792 22.5625 28 26.6875 28C27.0208 28 27.3125 27.875 27.5625 27.625C27.8542 27.3333 28 27.0208 28 26.6875V22C28 21.6667 27.8542 21.375 27.5625 21.125C27.3125 20.8333 27.0208 20.6875 26.6875 20.6875ZM6.6875 6.6875H8.6875C8.77083 7.64583 8.97917 8.79167 9.3125 10.125L7.75 11.75C7.16667 9.95833 6.8125 8.27083 6.6875 6.6875ZM25.3125 25.3125C23.7292 25.1875 22.0417 24.8333 20.25 24.25L21.875 22.6875C23.2917 23.0208 24.4375 23.1875 25.3125 23.1875V25.3125Z" fill="#1FE39D"/>
</svg>
