<svg width="72" height="150" viewBox="0 0 72 150" fill="none" xmlns="http://www.w3.org/2000/svg">
<path d="M71 4C71 2.34314 69.6569 1 68 1H32C14.8792 1 1 14.8792 1 32V146C1 147.657 2.34315 149 4 149H40C57.1208 149 71 135.121 71 118V4Z" stroke="#FF2E4D" stroke-width="2"/>
<path d="M39.9946 64.313C41.9113 64.313 43.6821 64.7922 45.3071 65.7505C46.9738 66.7088 48.2863 68.0213 49.2446 69.688C50.203 71.313 50.6821 73.0838 50.6821 75.0005C50.6821 76.9172 50.203 78.7088 49.2446 80.3755C48.2863 82.0005 46.9738 83.2922 45.3071 84.2505C43.6821 85.2088 41.9113 85.688 39.9946 85.688C38.078 85.688 36.2863 85.2088 34.6196 84.2505C32.9946 83.2922 31.703 82.0005 30.7446 80.3755C29.7863 78.7088 29.3071 76.9172 29.3071 75.0005C29.3071 73.5838 29.578 72.2297 30.1196 70.938C30.6613 69.6047 31.4321 68.438 32.4321 67.438C33.4321 66.438 34.578 65.6672 35.8696 65.1255C37.203 64.5838 38.578 64.313 39.9946 64.313ZM39.9946 67.0005C38.5363 67.0005 37.1821 67.3547 35.9321 68.063C34.7238 68.7713 33.7655 69.7505 33.0571 71.0005C32.3488 72.2088 31.9946 73.5421 31.9946 75.0005C31.9946 76.4588 32.3488 77.813 33.0571 79.063C33.7655 80.2713 34.7238 81.2297 35.9321 81.938C37.1821 82.6463 38.5363 83.0005 39.9946 83.0005C41.453 83.0005 42.7863 82.6463 43.9946 81.938C45.2446 81.2297 46.2238 80.2713 46.9321 79.063C47.6405 77.813 47.9946 76.4588 47.9946 75.0005C47.9946 73.5421 47.6405 72.2088 46.9321 71.0005C46.2238 69.7505 45.2446 68.7713 43.9946 68.063C42.7863 67.3547 41.453 67.0005 39.9946 67.0005ZM38.6821 69.688H40.6821V74.688L43.7446 77.813L42.3696 79.2505L38.6821 75.563V69.688ZM22.6821 83.0005C22.3071 83.0005 21.9738 82.8755 21.6821 82.6255C21.4321 82.3755 21.3071 82.063 21.3071 81.688C21.3071 81.313 21.4321 81.0005 21.6821 80.7505C21.9738 80.4588 22.3071 80.313 22.6821 80.313H27.7446C28.1613 81.2297 28.6821 82.1255 29.3071 83.0005H22.6821ZM23.9946 76.313C23.6196 76.313 23.3071 76.188 23.0571 75.938C22.8071 75.688 22.6821 75.3755 22.6821 75.0005C22.6821 74.6255 22.8071 74.313 23.0571 74.063C23.3071 73.813 23.6196 73.688 23.9946 73.688H26.7446L26.6821 75.0005L26.7446 76.313H23.9946ZM25.3071 69.688C24.9321 69.688 24.6196 69.563 24.3696 69.313C24.1196 69.0213 23.9946 68.688 23.9946 68.313C23.9946 67.938 24.1196 67.6255 24.3696 67.3755C24.6196 67.1255 24.9321 67.0005 25.3071 67.0005H29.3071C28.6821 67.8755 28.1613 68.7713 27.7446 69.688H25.3071Z" fill="#FF2E4D"/>
</svg>
