<svg width="72" height="150" viewBox="0 0 72 150" fill="none" xmlns="http://www.w3.org/2000/svg">
<path d="M71 4C71 2.34314 69.6569 1 68 1H32C14.8792 1 1 14.8792 1 32V146C1 147.657 2.34315 149 4 149H40C57.1208 149 71 135.121 71 118V4Z" stroke="#FF2E4D" stroke-width="2"/>
<path d="M32.6875 63C34.2292 63 35.6667 63.3958 37 64.1875C38.3333 64.9375 39.375 65.9792 40.125 67.3125C40.9167 68.6458 41.3125 70.1042 41.3125 71.6875C41.3125 73.8125 40.625 75.6875 39.25 77.3125L39.625 77.6875H40.6875L47.3125 84.3125L45.3125 86.3125L38.6875 79.6875V78.625L38.3125 78.25C36.6875 79.625 34.8125 80.3125 32.6875 80.3125C31.5208 80.3125 30.3958 80.1042 29.3125 79.6875C28.2708 79.2292 27.3333 78.6042 26.5 77.8125C25.7083 76.9792 25.0833 76.0417 24.625 75C24.2083 73.9167 24 72.8125 24 71.6875C24 70.1042 24.375 68.6458 25.125 67.3125C25.9167 65.9792 26.9792 64.9375 28.3125 64.1875C29.6458 63.3958 31.1042 63 32.6875 63ZM32.6875 65.6875C31.0208 65.6875 29.6042 66.2708 28.4375 67.4375C27.2708 68.6042 26.6875 70.0208 26.6875 71.6875C26.6875 73.3542 27.2708 74.7708 28.4375 75.9375C29.6042 77.1042 31.0208 77.6875 32.6875 77.6875C34.3542 77.6875 35.7708 77.1042 36.9375 75.9375C38.1042 74.7708 38.6875 73.3542 38.6875 71.6875C38.6875 70.0208 38.1042 68.6042 36.9375 67.4375C35.7708 66.2708 34.3542 65.6875 32.6875 65.6875Z" fill="#FF2E4D"/>
</svg>
