<svg width="150" height="72" viewBox="0 0 150 72" fill="none" xmlns="http://www.w3.org/2000/svg">
<path d="M1 4C1 2.34315 2.34315 1 4 1H118C135.121 1 149 14.8792 149 32V68C149 69.6569 147.657 71 146 71H32C14.8792 71 1 57.1208 1 40V4Z" stroke="#FF2E4D" stroke-width="2"/>
<path d="M81.6875 44L75 41.0625L68.3125 44V26.6875H81.6875V44ZM81.6875 24H68.3125C67.6042 24 66.9792 24.2708 66.4375 24.8125C65.9375 25.3125 65.6875 25.9375 65.6875 26.6875V48L75 44L84.3125 48V26.6875C84.3125 25.9375 84.0417 25.3125 83.5 24.8125C83 24.2708 82.3958 24 81.6875 24Z" fill="#FF480E"/>
<path d="M81.6875 44L75 41.0625L68.3125 44V26.6875H81.6875V44ZM81.6875 24H68.3125C67.6042 24 66.9792 24.2708 66.4375 24.8125C65.9375 25.3125 65.6875 25.9375 65.6875 26.6875V48L75 44L84.3125 48V26.6875C84.3125 25.9375 84.0417 25.3125 83.5 24.8125C83 24.2708 82.3958 24 81.6875 24Z" fill="#FF2E4D"/>
</svg>
