<svg width="32" height="32" viewBox="0 0 32 32" fill="none" xmlns="http://www.w3.org/2000/svg">
<path d="M16 8.6875C16.9167 8.6875 17.6875 9.02083 18.3125 9.6875C18.9792 10.3125 19.3125 11.0833 19.3125 12C19.3125 12.9167 18.9792 13.7083 18.3125 14.375C17.6875 15 16.9167 15.3125 16 15.3125C15.0833 15.3125 14.2917 15 13.625 14.375C13 13.7083 12.6875 12.9167 12.6875 12C12.6875 11.0833 13 10.3125 13.625 9.6875C14.2917 9.02083 15.0833 8.6875 16 8.6875ZM16 2.6875C17.7083 2.6875 19.2708 3.10417 20.6875 3.9375C22.1042 4.77083 23.2292 5.89583 24.0625 7.3125C24.8958 8.72917 25.3125 10.2917 25.3125 12C25.3125 14.9167 23.7708 18.6875 20.6875 23.3125C19.1042 25.6042 17.5417 27.6042 16 29.3125L14.5625 27.625C13.3958 26.1667 12.3125 24.7292 11.3125 23.3125C9.97917 21.2708 8.91667 19.3958 8.125 17.6875C7.16667 15.5208 6.6875 13.6042 6.6875 11.9375C6.6875 10.2708 7.10417 8.72917 7.9375 7.3125C8.77083 5.89583 9.89583 4.77083 11.3125 3.9375C12.7292 3.10417 14.2917 2.6875 16 2.6875ZM16 5.3125C15.125 5.3125 14.2708 5.5 13.4375 5.875C12.6458 6.20833 11.9375 6.6875 11.3125 7.3125C10.6875 7.9375 10.1875 8.66667 9.8125 9.5C9.47917 10.2917 9.3125 11.125 9.3125 12C9.3125 12.7083 9.39583 13.3542 9.5625 13.9375C9.85417 15.0625 10.4375 16.3958 11.3125 17.9375C12.3958 19.8958 13.9583 22.2292 16 24.9375C18.0417 22.2292 19.6042 19.8958 20.6875 17.9375C21.5625 16.3958 22.1458 15.0625 22.4375 13.9375C22.6042 13.3542 22.6875 12.7083 22.6875 12C22.6875 11.125 22.5 10.2917 22.125 9.5C21.7917 8.66667 21.3125 7.9375 20.6875 7.3125C20.0625 6.6875 19.3333 6.20833 18.5 5.875C17.7083 5.5 16.875 5.3125 16 5.3125Z" fill="#FF480E"/>
<path d="M16 8.6875C16.9167 8.6875 17.6875 9.02083 18.3125 9.6875C18.9792 10.3125 19.3125 11.0833 19.3125 12C19.3125 12.9167 18.9792 13.7083 18.3125 14.375C17.6875 15 16.9167 15.3125 16 15.3125C15.0833 15.3125 14.2917 15 13.625 14.375C13 13.7083 12.6875 12.9167 12.6875 12C12.6875 11.0833 13 10.3125 13.625 9.6875C14.2917 9.02083 15.0833 8.6875 16 8.6875ZM16 2.6875C17.7083 2.6875 19.2708 3.10417 20.6875 3.9375C22.1042 4.77083 23.2292 5.89583 24.0625 7.3125C24.8958 8.72917 25.3125 10.2917 25.3125 12C25.3125 14.9167 23.7708 18.6875 20.6875 23.3125C19.1042 25.6042 17.5417 27.6042 16 29.3125L14.5625 27.625C13.3958 26.1667 12.3125 24.7292 11.3125 23.3125C9.97917 21.2708 8.91667 19.3958 8.125 17.6875C7.16667 15.5208 6.6875 13.6042 6.6875 11.9375C6.6875 10.2708 7.10417 8.72917 7.9375 7.3125C8.77083 5.89583 9.89583 4.77083 11.3125 3.9375C12.7292 3.10417 14.2917 2.6875 16 2.6875ZM16 5.3125C15.125 5.3125 14.2708 5.5 13.4375 5.875C12.6458 6.20833 11.9375 6.6875 11.3125 7.3125C10.6875 7.9375 10.1875 8.66667 9.8125 9.5C9.47917 10.2917 9.3125 11.125 9.3125 12C9.3125 12.7083 9.39583 13.3542 9.5625 13.9375C9.85417 15.0625 10.4375 16.3958 11.3125 17.9375C12.3958 19.8958 13.9583 22.2292 16 24.9375C18.0417 22.2292 19.6042 19.8958 20.6875 17.9375C21.5625 16.3958 22.1458 15.0625 22.4375 13.9375C22.6042 13.3542 22.6875 12.7083 22.6875 12C22.6875 11.125 22.5 10.2917 22.125 9.5C21.7917 8.66667 21.3125 7.9375 20.6875 7.3125C20.0625 6.6875 19.3333 6.20833 18.5 5.875C17.7083 5.5 16.875 5.3125 16 5.3125Z" fill="#1FE39D"/>
</svg>
