<svg width="72" height="150" viewBox="0 0 72 150" fill="none" xmlns="http://www.w3.org/2000/svg">
<path d="M71 4C71 2.34314 69.6569 1 68 1H32C14.8792 1 1 14.8792 1 32V146C1 147.657 2.34315 149 4 149H40C57.1208 149 71 135.121 71 118V4Z" stroke="#FF2E4D" stroke-width="2"/>
<path d="M35.9951 60.3125C33.8285 60.3125 31.8076 60.8542 29.9326 61.9375C28.0993 63.0208 26.641 64.4792 25.5576 66.3125C24.516 68.1458 23.9951 70.1458 23.9951 72.3125V81.6875C23.9951 82.7708 24.3701 83.7083 25.1201 84.5C25.9118 85.2917 26.8701 85.6875 27.9951 85.6875H31.9951V75H26.6826V72.3125C26.6826 70.6458 27.0993 69.1042 27.9326 67.6875C28.766 66.2292 29.891 65.0833 31.3076 64.25C32.7243 63.4167 34.2868 63 35.9951 63C37.7035 63 39.266 63.4167 40.6826 64.25C42.0993 65.0833 43.2243 66.2292 44.0576 67.6875C44.891 69.1042 45.3076 70.6458 45.3076 72.3125V75H39.9951V85.6875H45.3076V87H35.9951V89.6875H43.9951C45.1201 89.6875 46.0576 89.2917 46.8076 88.5C47.5993 87.7083 47.9951 86.7708 47.9951 85.6875V72.3125C47.9951 70.1458 47.4535 68.1458 46.3701 66.3125C45.2868 64.4792 43.8285 63.0208 41.9951 61.9375C40.1618 60.8542 38.1618 60.3125 35.9951 60.3125Z" fill="#FF2E4D"/>
</svg>
