<svg width="40" height="40" viewBox="0 0 40 40" fill="none" xmlns="http://www.w3.org/2000/svg">
<path d="M21.1001 7.25732V11.2573C22.6001 11.5073 23.9543 12.0698 25.1626 12.9448C26.4126 13.7782 27.371 14.8615 28.0376 16.1948C28.746 17.5282 29.1001 18.9657 29.1001 20.5073C29.1001 21.674 28.8918 22.799 28.4751 23.8823L31.9751 25.9448C32.7251 24.1948 33.1001 22.3823 33.1001 20.5073C33.1001 18.2573 32.5585 16.1532 31.4751 14.1948C30.4335 12.2365 28.996 10.6532 27.1626 9.44482C25.371 8.19482 23.3501 7.46566 21.1001 7.25732ZM19.7876 29.8198C18.0793 29.8198 16.5168 29.4032 15.1001 28.5698C13.6834 27.7365 12.5584 26.6115 11.7251 25.1948C10.8918 23.7782 10.4751 22.2157 10.4751 20.5073C10.4751 18.9657 10.8084 17.5282 11.4751 16.1948C12.1834 14.8615 13.1418 13.7782 14.3501 12.9448C15.6001 12.0698 16.9751 11.5073 18.4751 11.2573V7.25732C16.2251 7.46566 14.1834 8.19482 12.3501 9.44482C10.5168 10.6532 9.07926 12.2365 8.03759 14.1948C6.99593 16.1532 6.4751 18.2573 6.4751 20.5073C6.4751 22.2573 6.80843 23.9657 7.47509 25.6323C8.14176 27.2573 9.10009 28.6948 10.3501 29.9448C11.6001 31.1948 13.0376 32.1532 14.6626 32.8198C16.3293 33.4865 18.0376 33.8198 19.7876 33.8198C21.9543 33.8198 23.9751 33.3407 25.8501 32.3823C27.7251 31.424 29.2876 30.0907 30.5376 28.3823L27.0376 26.3198C26.1626 27.4448 25.1001 28.3198 23.8501 28.9448C22.6001 29.5282 21.246 29.8198 19.7876 29.8198Z" fill="#FF2E4D"/>
</svg>
