<svg width="40" height="40" viewBox="0 0 40 40" fill="none" xmlns="http://www.w3.org/2000/svg">
<path d="M36.7082 26.3014C36.5214 26.114 36.268 26.0089 36.0039 26.0089H34.3054V8.99852C34.3054 8.44699 33.8592 8 33.3093 8H6.68918C6.13899 8 5.69308 8.44699 5.69308 8.99852V26.0089H3.99609C3.73177 26.0089 3.47833 26.114 3.29156 26.3014C3.1048 26.4887 3 26.743 3 27.0077L3.00026 27.6747C3.00104 30.0597 4.93745 32 7.31667 32H32.6836C35.0636 32 37 30.0591 37 27.6734V27.0074C37 26.7427 36.8952 26.4887 36.7082 26.3014ZM18.0872 22.7115C16.4621 21.9704 15.3863 20.3439 15.3469 18.5676C15.316 17.1796 15.8826 15.8989 16.8613 15.0102V17.871C16.8613 19.1558 17.9041 20.2009 19.1855 20.2009H20.8119C22.0936 20.2009 23.1361 19.1558 23.1361 17.871V15.013C24.0866 15.8794 24.6518 17.1187 24.6518 18.4608C24.6518 20.2893 23.5769 21.9582 21.9128 22.7125C21.5564 22.874 21.3271 23.23 21.3271 23.6221V26.0089H18.6708V23.6205C18.6708 23.2289 18.4428 22.8735 18.0872 22.7115ZM7.68527 9.99703H32.3132V26.0089H23.3193V24.2306C25.3584 23.0495 26.644 20.8507 26.644 18.4608C26.644 15.746 25.0246 13.3265 22.518 12.2962C22.2109 12.1698 21.8612 12.2052 21.5852 12.3909C21.3094 12.5763 21.144 12.8873 21.144 13.2201V17.871C21.144 18.0546 20.9951 18.2038 20.8119 18.2038H19.1855C19.0023 18.2038 18.8535 18.0546 18.8535 17.871V13.2201C18.8535 12.8873 18.688 12.5763 18.4122 12.3909C18.1365 12.2055 17.7868 12.1701 17.4794 12.2962C16.2506 12.8012 15.2099 13.6546 14.4701 14.7644C13.7101 15.9041 13.3246 17.2347 13.355 18.6121C13.4066 20.9305 14.6906 23.069 16.6786 24.2272L16.6784 26.0089H7.68527V9.99703ZM32.6836 30.003H7.31667C6.14781 30.003 5.17766 29.1337 5.01605 28.0059H34.9842C34.8226 29.1337 33.8524 30.003 32.6836 30.003Z" fill="#FF2E4D" stroke="#FF2E4D" stroke-width="0.5"/>
</svg>
