<svg width="16" height="13" viewBox="0 0 16 13" fill="none" xmlns="http://www.w3.org/2000/svg">
<path d="M1.34375 1.5L2.1875 0.65625L13.3438 11.8125L12.5 12.6562L10.4375 10.625C9.64583 10.875 8.83333 11 8 11C6.35417 11 4.86458 10.5417 3.53125 9.625C2.19792 8.6875 1.23958 7.47917 0.65625 6C1.11458 4.8125 1.82292 3.80208 2.78125 2.96875L1.34375 1.5ZM8 4C8.5625 4 9.03125 4.19792 9.40625 4.59375C9.80208 4.96875 10 5.4375 10 6C10 6.22917 9.95833 6.44792 9.875 6.65625L7.34375 4.125C7.55208 4.04167 7.77083 4 8 4ZM8 1C9.64583 1 11.1354 1.46875 12.4688 2.40625C13.8021 3.32292 14.7604 4.52083 15.3438 6C14.7812 7.41667 13.8854 8.57292 12.6562 9.46875L11.7188 8.5C12.6562 7.85417 13.375 7.02083 13.875 6C13.3333 4.875 12.5312 3.98958 11.4688 3.34375C10.4062 2.67708 9.25 2.34375 8 2.34375C7.29167 2.34375 6.59375 2.44792 5.90625 2.65625L4.875 1.65625C5.875 1.21875 6.91667 1 8 1ZM2.125 6C2.66667 7.125 3.46875 8.02083 4.53125 8.6875C5.59375 9.33333 6.75 9.65625 8 9.65625C8.47917 9.65625 8.92708 9.61458 9.34375 9.53125L7.8125 8C7.33333 7.95833 6.91667 7.77083 6.5625 7.4375C6.22917 7.08333 6.04167 6.66667 6 6.1875L3.71875 3.90625C3.05208 4.48958 2.52083 5.1875 2.125 6Z" fill="white"/>
</svg>
